<svg width="170" height="68" viewBox="0 0 170 68" fill="none" xmlns="http://www.w3.org/2000/svg">
<rect width="170" height="68" fill="white"/>
<path d="M28.233 21V10.8182H31.7926C32.5019 10.8182 33.0869 10.9408 33.5476 11.1861C34.0083 11.428 34.3513 11.7545 34.5767 12.1655C34.8021 12.5732 34.9148 13.0256 34.9148 13.5227C34.9148 13.9602 34.8369 14.3215 34.6811 14.6065C34.5286 14.8916 34.3265 15.117 34.0746 15.2827C33.826 15.4484 33.5559 15.571 33.2642 15.6506V15.75C33.5758 15.7699 33.889 15.8793 34.2038 16.0781C34.5187 16.277 34.7822 16.562 34.9943 16.9332C35.2064 17.3045 35.3125 17.7585 35.3125 18.2955C35.3125 18.8059 35.1965 19.2649 34.9645 19.6726C34.7325 20.0803 34.3662 20.4034 33.8658 20.642C33.3653 20.8807 32.714 21 31.9119 21H28.233ZM29.4659 19.9062H31.9119C32.7173 19.9062 33.2891 19.7505 33.6271 19.4389C33.9685 19.1241 34.1392 18.7429 34.1392 18.2955C34.1392 17.9508 34.0514 17.6326 33.8757 17.3409C33.7 17.0459 33.4498 16.8106 33.125 16.6349C32.8002 16.456 32.4157 16.3665 31.9716 16.3665H29.4659V19.9062ZM29.4659 15.2926H31.7528C32.1241 15.2926 32.4588 15.2197 32.7571 15.0739C33.0587 14.928 33.2973 14.7225 33.473 14.4574C33.652 14.1922 33.7415 13.8807 33.7415 13.5227C33.7415 13.0753 33.5857 12.6958 33.2741 12.3842C32.9626 12.0694 32.4688 11.9119 31.7926 11.9119H29.4659V15.2926ZM37.1793 21V13.3636H38.3129V14.517H38.3924C38.5316 14.1392 38.7835 13.8326 39.1481 13.5973C39.5127 13.362 39.9237 13.2443 40.381 13.2443C40.4672 13.2443 40.5749 13.246 40.7042 13.2493C40.8335 13.2526 40.9312 13.2576 40.9975 13.2642V14.4574C40.9577 14.4474 40.8666 14.4325 40.7241 14.4126C40.5849 14.3894 40.4374 14.3778 40.2816 14.3778C39.9104 14.3778 39.579 14.4557 39.2873 14.6115C38.9989 14.764 38.7702 14.9761 38.6012 15.2479C38.4355 15.5163 38.3526 15.8229 38.3526 16.1676V21H37.1793ZM44.6355 21.179C44.1516 21.179 43.7124 21.0878 43.318 20.9055C42.9236 20.7199 42.6104 20.4531 42.3784 20.1051C42.1464 19.7538 42.0304 19.3295 42.0304 18.8324C42.0304 18.3949 42.1165 18.0402 42.2889 17.7685C42.4612 17.4934 42.6916 17.2779 42.9799 17.1222C43.2683 16.9664 43.5865 16.8504 43.9345 16.7741C44.2858 16.6946 44.6388 16.6316 44.9934 16.5852C45.4574 16.5256 45.8336 16.4808 46.122 16.451C46.4136 16.4179 46.6258 16.3632 46.7583 16.2869C46.8942 16.2107 46.9622 16.0781 46.9622 15.8892V15.8494C46.9622 15.3589 46.8279 14.9777 46.5595 14.706C46.2943 14.4342 45.8916 14.2983 45.3514 14.2983C44.7913 14.2983 44.3521 14.4209 44.0339 14.6662C43.7157 14.9115 43.492 15.1733 43.3627 15.4517L42.2491 15.054C42.448 14.59 42.7131 14.2287 43.0446 13.9702C43.3793 13.7083 43.7439 13.526 44.1383 13.4233C44.536 13.3172 44.9271 13.2642 45.3116 13.2642C45.5569 13.2642 45.8386 13.294 46.1568 13.3537C46.4783 13.41 46.7882 13.5277 47.0865 13.7067C47.3881 13.8857 47.6383 14.1558 47.8372 14.517C48.036 14.8783 48.1355 15.3622 48.1355 15.9688V21H46.9622V19.9659H46.9025C46.823 20.1316 46.6904 20.3089 46.5048 20.4979C46.3192 20.6868 46.0723 20.8475 45.764 20.9801C45.4558 21.1127 45.0796 21.179 44.6355 21.179ZM44.8145 20.125C45.2785 20.125 45.6696 20.0339 45.9877 19.8516C46.3092 19.6693 46.5512 19.4339 46.7136 19.1456C46.8793 18.8572 46.9622 18.554 46.9622 18.2358V17.1619C46.9125 17.2216 46.8031 17.2763 46.6341 17.326C46.4683 17.3724 46.2761 17.4138 46.0574 17.4503C45.8419 17.4834 45.6315 17.5133 45.426 17.5398C45.2238 17.563 45.0597 17.5829 44.9338 17.5994C44.6288 17.6392 44.3438 17.7038 44.0787 17.7933C43.8168 17.8795 43.6047 18.0104 43.4423 18.1861C43.2832 18.3584 43.2037 18.5937 43.2037 18.892C43.2037 19.2997 43.3545 19.608 43.6561 19.8168C43.961 20.0223 44.3471 20.125 44.8145 20.125ZM51.4503 16.4062V21H50.277V13.3636H51.4105V14.5568H51.5099C51.6889 14.169 51.9607 13.8575 52.3253 13.6222C52.6899 13.3835 53.1605 13.2642 53.7372 13.2642C54.2543 13.2642 54.7067 13.3703 55.0945 13.5824C55.4822 13.7912 55.7839 14.1094 55.9993 14.5369C56.2147 14.9612 56.3224 15.4981 56.3224 16.1477V21H55.1491V16.2273C55.1491 15.6274 54.9934 15.16 54.6818 14.8253C54.3703 14.4872 53.9427 14.3182 53.3991 14.3182C53.0246 14.3182 52.6899 14.3994 52.3949 14.5618C52.1032 14.7242 51.8729 14.9612 51.7038 15.2727C51.5348 15.5843 51.4503 15.9621 51.4503 16.4062ZM61.35 21.1591C60.7136 21.1591 60.1518 20.9983 59.6646 20.6768C59.1774 20.352 58.7962 19.8946 58.5211 19.3047C58.246 18.7114 58.1085 18.0104 58.1085 17.2017C58.1085 16.3996 58.246 15.7036 58.5211 15.1136C58.7962 14.5237 59.179 14.0679 59.6696 13.7464C60.1601 13.425 60.7269 13.2642 61.3699 13.2642C61.867 13.2642 62.2598 13.3471 62.5481 13.5128C62.8398 13.6752 63.0618 13.8608 63.2143 14.0696C63.3701 14.2751 63.4911 14.4441 63.5772 14.5767H63.6767V10.8182H64.85V21H63.7164V19.8267H63.5772C63.4911 19.9659 63.3684 20.1416 63.2093 20.3537C63.0502 20.5625 62.8232 20.7498 62.5282 20.9155C62.2333 21.0779 61.8405 21.1591 61.35 21.1591ZM61.5091 20.1051C61.9797 20.1051 62.3774 19.9825 62.7022 19.7372C63.027 19.4886 63.274 19.1456 63.443 18.7081C63.612 18.2673 63.6966 17.7585 63.6966 17.1818C63.6966 16.6117 63.6137 16.1129 63.448 15.6854C63.2823 15.2545 63.037 14.9197 62.7122 14.6811C62.3874 14.4392 61.9863 14.3182 61.5091 14.3182C61.0119 14.3182 60.5976 14.4458 60.2662 14.701C59.938 14.9529 59.6911 15.2959 59.5254 15.7301C59.363 16.161 59.2818 16.6449 59.2818 17.1818C59.2818 17.7254 59.3646 18.2192 59.5304 18.6634C59.6994 19.1042 59.948 19.4555 60.2761 19.7173C60.6075 19.9759 61.0185 20.1051 61.5091 20.1051ZM68.0169 21.0795C67.7716 21.0795 67.5611 20.9917 67.3855 20.8161C67.2098 20.6404 67.122 20.4299 67.122 20.1847C67.122 19.9394 67.2098 19.7289 67.3855 19.5533C67.5611 19.3776 67.7716 19.2898 68.0169 19.2898C68.2621 19.2898 68.4726 19.3776 68.6483 19.5533C68.8239 19.7289 68.9118 19.9394 68.9118 20.1847C68.9118 20.3471 68.8703 20.4962 68.7875 20.6321C68.7079 20.768 68.6002 20.8774 68.4643 20.9602C68.3317 21.0398 68.1826 21.0795 68.0169 21.0795ZM68.0169 15.4119C67.7716 15.4119 67.5611 15.3241 67.3855 15.1484C67.2098 14.9728 67.122 14.7623 67.122 14.517C67.122 14.2718 67.2098 14.0613 67.3855 13.8857C67.5611 13.71 67.7716 13.6222 68.0169 13.6222C68.2621 13.6222 68.4726 13.71 68.6483 13.8857C68.8239 14.0613 68.9118 14.2718 68.9118 14.517C68.9118 14.6795 68.8703 14.8286 68.7875 14.9645C68.7079 15.1004 68.6002 15.2098 68.4643 15.2926C68.3317 15.3722 68.1826 15.4119 68.0169 15.4119Z" fill="black"/>
</svg>
