<svg width="51" height="51" viewBox="0 0 51 51" fill="none" xmlns="http://www.w3.org/2000/svg">
<path d="M25.0739 46.2947C36.5594 46.5104 46.079 37.3417 46.2947 25.8562C46.5104 14.3707 37.3417 4.85105 25.8562 4.63536C14.3708 4.41967 4.8511 13.5884 4.63541 25.0739C4.41972 36.5593 13.5884 46.079 25.0739 46.2947ZM25.778 8.80129C34.966 8.97384 42.3013 16.59 42.1288 25.778C41.9563 34.9659 34.3401 42.3013 25.1521 42.1288C15.9642 41.9562 8.6288 34.3401 8.80134 25.1521C8.97389 15.9641 16.59 8.62875 25.778 8.80129Z" fill="white"/>
<path d="M33.9533 17.2896L23.382 25.4259L33.6404 33.9533L33.9533 17.2896ZM23.382 25.4259L23.5385 17.094L19.3726 17.0158L19.0596 33.6795L23.2255 33.7577L23.382 25.4259Z" fill="white"/>
</svg>
