<svg width="170" height="68" viewBox="0 0 170 68" fill="none" xmlns="http://www.w3.org/2000/svg">
<rect width="170" height="68" fill="white"/>
<path d="M36.4261 15H35.1932C35.1203 14.6454 34.9927 14.3338 34.8104 14.0653C34.6314 13.7969 34.4126 13.5715 34.1541 13.3892C33.8989 13.2036 33.6155 13.0644 33.304 12.9716C32.9924 12.8788 32.6676 12.8324 32.3295 12.8324C31.7131 12.8324 31.1546 12.9882 30.6541 13.2997C30.157 13.6113 29.7609 14.0703 29.4659 14.6768C29.1742 15.2834 29.0284 16.0275 29.0284 16.9091C29.0284 17.7907 29.1742 18.5348 29.4659 19.1413C29.7609 19.7479 30.157 20.2069 30.6541 20.5185C31.1546 20.83 31.7131 20.9858 32.3295 20.9858C32.6676 20.9858 32.9924 20.9394 33.304 20.8466C33.6155 20.7538 33.8989 20.6162 34.1541 20.4339C34.4126 20.2483 34.6314 20.0213 34.8104 19.7528C34.9927 19.4811 35.1203 19.1695 35.1932 18.8182H36.4261C36.3333 19.3385 36.1643 19.8042 35.919 20.2152C35.6738 20.6262 35.3688 20.9759 35.0043 21.2642C34.6397 21.5492 34.2304 21.7663 33.7763 21.9155C33.3255 22.0646 32.8433 22.1392 32.3295 22.1392C31.4612 22.1392 30.6889 21.9271 30.0128 21.5028C29.3366 21.0786 28.8047 20.4754 28.4169 19.6932C28.0291 18.911 27.8352 17.983 27.8352 16.9091C27.8352 15.8352 28.0291 14.9072 28.4169 14.125C28.8047 13.3428 29.3366 12.7396 30.0128 12.3153C30.6889 11.8911 31.4612 11.679 32.3295 11.679C32.8433 11.679 33.3255 11.7536 33.7763 11.9027C34.2304 12.0518 34.6397 12.2706 35.0043 12.5589C35.3688 12.844 35.6738 13.192 35.919 13.603C36.1643 14.0107 36.3333 14.4763 36.4261 15ZM41.3617 22.1591C40.6723 22.1591 40.0674 21.995 39.5471 21.6669C39.03 21.3388 38.6257 20.8797 38.334 20.2898C38.0456 19.6998 37.9015 19.0104 37.9015 18.2216C37.9015 17.4261 38.0456 16.7318 38.334 16.1385C38.6257 15.5452 39.03 15.0845 39.5471 14.7564C40.0674 14.4283 40.6723 14.2642 41.3617 14.2642C42.0511 14.2642 42.6543 14.4283 43.1713 14.7564C43.6917 15.0845 44.0961 15.5452 44.3844 16.1385C44.6761 16.7318 44.8219 17.4261 44.8219 18.2216C44.8219 19.0104 44.6761 19.6998 44.3844 20.2898C44.0961 20.8797 43.6917 21.3388 43.1713 21.6669C42.6543 21.995 42.0511 22.1591 41.3617 22.1591ZM41.3617 21.1051C41.8854 21.1051 42.3162 20.9709 42.6543 20.7024C42.9924 20.4339 43.2426 20.081 43.405 19.6435C43.5674 19.206 43.6486 18.732 43.6486 18.2216C43.6486 17.7112 43.5674 17.2356 43.405 16.7947C43.2426 16.3539 42.9924 15.9976 42.6543 15.7259C42.3162 15.4541 41.8854 15.3182 41.3617 15.3182C40.838 15.3182 40.4071 15.4541 40.0691 15.7259C39.731 15.9976 39.4808 16.3539 39.3184 16.7947C39.156 17.2356 39.0748 17.7112 39.0748 18.2216C39.0748 18.732 39.156 19.206 39.3184 19.6435C39.4808 20.081 39.731 20.4339 40.0691 20.7024C40.4071 20.9709 40.838 21.1051 41.3617 21.1051ZM47.7862 11.8182V22H46.6129V11.8182H47.7862ZM53.0375 22.1591C52.3481 22.1591 51.7432 21.995 51.2228 21.6669C50.7058 21.3388 50.3014 20.8797 50.0098 20.2898C49.7214 19.6998 49.5772 19.0104 49.5772 18.2216C49.5772 17.4261 49.7214 16.7318 50.0098 16.1385C50.3014 15.5452 50.7058 15.0845 51.2228 14.7564C51.7432 14.4283 52.3481 14.2642 53.0375 14.2642C53.7269 14.2642 54.3301 14.4283 54.8471 14.7564C55.3675 15.0845 55.7718 15.5452 56.0602 16.1385C56.3519 16.7318 56.4977 17.4261 56.4977 18.2216C56.4977 19.0104 56.3519 19.6998 56.0602 20.2898C55.7718 20.8797 55.3675 21.3388 54.8471 21.6669C54.3301 21.995 53.7269 22.1591 53.0375 22.1591ZM53.0375 21.1051C53.5611 21.1051 53.992 20.9709 54.3301 20.7024C54.6681 20.4339 54.9184 20.081 55.0808 19.6435C55.2432 19.206 55.3244 18.732 55.3244 18.2216C55.3244 17.7112 55.2432 17.2356 55.0808 16.7947C54.9184 16.3539 54.6681 15.9976 54.3301 15.7259C53.992 15.4541 53.5611 15.3182 53.0375 15.3182C52.5138 15.3182 52.0829 15.4541 51.7449 15.7259C51.4068 15.9976 51.1565 16.3539 50.9941 16.7947C50.8317 17.2356 50.7505 17.7112 50.7505 18.2216C50.7505 18.732 50.8317 19.206 50.9941 19.6435C51.1565 20.081 51.4068 20.4339 51.7449 20.7024C52.0829 20.9709 52.5138 21.1051 53.0375 21.1051ZM58.2887 22V14.3636H59.4222V15.517H59.5018C59.641 15.1392 59.8929 14.8326 60.2575 14.5973C60.622 14.362 61.033 14.2443 61.4904 14.2443C61.5766 14.2443 61.6843 14.246 61.8136 14.2493C61.9428 14.2526 62.0406 14.2576 62.1069 14.2642V15.4574C62.0671 15.4474 61.976 15.4325 61.8335 15.4126C61.6942 15.3894 61.5468 15.3778 61.391 15.3778C61.0198 15.3778 60.6883 15.4557 60.3967 15.6115C60.1083 15.764 59.8796 15.9761 59.7106 16.2479C59.5449 16.5163 59.462 16.8229 59.462 17.1676V22H58.2887ZM64.3528 22.0795C64.1075 22.0795 63.8971 21.9917 63.7214 21.8161C63.5458 21.6404 63.4579 21.4299 63.4579 21.1847C63.4579 20.9394 63.5458 20.7289 63.7214 20.5533C63.8971 20.3776 64.1075 20.2898 64.3528 20.2898C64.5981 20.2898 64.8085 20.3776 64.9842 20.5533C65.1599 20.7289 65.2477 20.9394 65.2477 21.1847C65.2477 21.3471 65.2063 21.4962 65.1234 21.6321C65.0439 21.768 64.9361 21.8774 64.8002 21.9602C64.6677 22.0398 64.5185 22.0795 64.3528 22.0795ZM64.3528 16.4119C64.1075 16.4119 63.8971 16.3241 63.7214 16.1484C63.5458 15.9728 63.4579 15.7623 63.4579 15.517C63.4579 15.2718 63.5458 15.0613 63.7214 14.8857C63.8971 14.71 64.1075 14.6222 64.3528 14.6222C64.5981 14.6222 64.8085 14.71 64.9842 14.8857C65.1599 15.0613 65.2477 15.2718 65.2477 15.517C65.2477 15.6795 65.2063 15.8286 65.1234 15.9645C65.0439 16.1004 64.9361 16.2098 64.8002 16.2926C64.6677 16.3722 64.5185 16.4119 64.3528 16.4119Z" fill="black"/>
</svg>
