<svg width="50" height="50" viewBox="0 0 50 50" fill="none" xmlns="http://www.w3.org/2000/svg">
<path d="M25 4.16669C13.5125 4.16669 4.16669 13.5125 4.16669 25C4.16669 36.4875 13.5125 45.8334 25 45.8334C36.4875 45.8334 45.8334 36.4875 45.8334 25C45.8334 13.5125 36.4875 4.16669 25 4.16669ZM25 41.6667C15.8104 41.6667 8.33335 34.1896 8.33335 25C8.33335 15.8104 15.8104 8.33335 25 8.33335C34.1896 8.33335 41.6667 15.8104 41.6667 25C41.6667 34.1896 34.1896 41.6667 25 41.6667Z" fill="white"/>
<path d="M16.6667 33.3334L27.0834 25L16.6667 16.6667V33.3334ZM27.0834 25V33.3334H31.25V16.6667H27.0834V25Z" fill="white"/>
</svg>
