<svg width="170" height="68" viewBox="0 0 170 68" fill="none" xmlns="http://www.w3.org/2000/svg">
<rect width="170" height="68" fill="white"/>
<path d="M37.233 10.8182H38.7045L42.1648 19.2699H42.2841L45.7443 10.8182H47.2159V21H46.0625V13.2642H45.9631L42.7812 21H41.6676L38.4858 13.2642H38.3864V21H37.233V10.8182ZM52.6312 21.1591C51.9418 21.1591 51.3369 20.995 50.8166 20.6669C50.2995 20.3388 49.8952 19.8797 49.6035 19.2898C49.3152 18.6998 49.171 18.0104 49.171 17.2216C49.171 16.4261 49.3152 15.7318 49.6035 15.1385C49.8952 14.5452 50.2995 14.0845 50.8166 13.7564C51.3369 13.4283 51.9418 13.2642 52.6312 13.2642C53.3206 13.2642 53.9238 13.4283 54.4409 13.7564C54.9612 14.0845 55.3656 14.5452 55.6539 15.1385C55.9456 15.7318 56.0914 16.4261 56.0914 17.2216C56.0914 18.0104 55.9456 18.6998 55.6539 19.2898C55.3656 19.8797 54.9612 20.3388 54.4409 20.6669C53.9238 20.995 53.3206 21.1591 52.6312 21.1591ZM52.6312 20.1051C53.1549 20.1051 53.5858 19.9709 53.9238 19.7024C54.2619 19.4339 54.5121 19.081 54.6745 18.6435C54.8369 18.206 54.9181 17.732 54.9181 17.2216C54.9181 16.7112 54.8369 16.2356 54.6745 15.7947C54.5121 15.3539 54.2619 14.9976 53.9238 14.7259C53.5858 14.4541 53.1549 14.3182 52.6312 14.3182C52.1075 14.3182 51.6767 14.4541 51.3386 14.7259C51.0005 14.9976 50.7503 15.3539 50.5879 15.7947C50.4255 16.2356 50.3443 16.7112 50.3443 17.2216C50.3443 17.732 50.4255 18.206 50.5879 18.6435C50.7503 19.081 51.0005 19.4339 51.3386 19.7024C51.6767 19.9709 52.1075 20.1051 52.6312 20.1051ZM60.766 21.1591C60.1296 21.1591 59.5678 20.9983 59.0806 20.6768C58.5934 20.352 58.2122 19.8946 57.9371 19.3047C57.6621 18.7114 57.5245 18.0104 57.5245 17.2017C57.5245 16.3996 57.6621 15.7036 57.9371 15.1136C58.2122 14.5237 58.5951 14.0679 59.0856 13.7464C59.5761 13.425 60.1429 13.2642 60.7859 13.2642C61.283 13.2642 61.6758 13.3471 61.9641 13.5128C62.2558 13.6752 62.4779 13.8608 62.6303 14.0696C62.7861 14.2751 62.9071 14.4441 62.9933 14.5767H63.0927V10.8182H64.266V21H63.1325V19.8267H62.9933C62.9071 19.9659 62.7844 20.1416 62.6254 20.3537C62.4663 20.5625 62.2392 20.7498 61.9442 20.9155C61.6493 21.0779 61.2565 21.1591 60.766 21.1591ZM60.9251 20.1051C61.3957 20.1051 61.7934 19.9825 62.1183 19.7372C62.4431 19.4886 62.69 19.1456 62.859 18.7081C63.0281 18.2673 63.1126 17.7585 63.1126 17.1818C63.1126 16.6117 63.0297 16.1129 62.864 15.6854C62.6983 15.2545 62.453 14.9197 62.1282 14.6811C61.8034 14.4392 61.4023 14.3182 60.9251 14.3182C60.4279 14.3182 60.0136 14.4458 59.6822 14.701C59.354 14.9529 59.1071 15.2959 58.9414 15.7301C58.779 16.161 58.6978 16.6449 58.6978 17.1818C58.6978 17.7254 58.7807 18.2192 58.9464 18.6634C59.1154 19.1042 59.364 19.4555 59.6921 19.7173C60.0236 19.9759 60.4345 20.1051 60.9251 20.1051ZM69.7795 21.1591C69.0437 21.1591 68.409 20.9967 67.8754 20.6719C67.3451 20.3438 66.9357 19.8864 66.6474 19.2997C66.3623 18.7098 66.2198 18.0237 66.2198 17.2415C66.2198 16.4593 66.3623 15.7699 66.6474 15.1733C66.9357 14.5734 67.3368 14.1061 67.8505 13.7713C68.3675 13.4332 68.9708 13.2642 69.6602 13.2642C70.0579 13.2642 70.4506 13.3305 70.8384 13.4631C71.2262 13.5956 71.5792 13.8111 71.8974 14.1094C72.2156 14.4044 72.4691 14.7955 72.658 15.2827C72.8469 15.7699 72.9414 16.3698 72.9414 17.0824V17.5795H67.055V16.5653H71.7482C71.7482 16.1345 71.6621 15.75 71.4897 15.4119C71.3207 15.0739 71.0787 14.8071 70.7638 14.6115C70.4523 14.416 70.0844 14.3182 69.6602 14.3182C69.1928 14.3182 68.7885 14.4342 68.4471 14.6662C68.109 14.8949 67.8488 15.1932 67.6665 15.5611C67.4843 15.929 67.3931 16.3234 67.3931 16.7443V17.4205C67.3931 17.9972 67.4925 18.486 67.6914 18.8871C67.8936 19.2848 68.1737 19.5881 68.5316 19.7969C68.8896 20.0024 69.3055 20.1051 69.7795 20.1051C70.0877 20.1051 70.3661 20.062 70.6147 19.9759C70.8666 19.8864 71.0837 19.7538 71.266 19.5781C71.4483 19.3991 71.5891 19.1771 71.6886 18.9119L72.8221 19.2301C72.7028 19.6146 72.5022 19.9527 72.2205 20.2443C71.9388 20.5327 71.5908 20.758 71.1765 20.9205C70.7622 21.0795 70.2965 21.1591 69.7795 21.1591ZM75.8995 10.8182V21H74.7262V10.8182H75.8995ZM78.9036 21.0795C78.6583 21.0795 78.4479 20.9917 78.2722 20.8161C78.0965 20.6404 78.0087 20.4299 78.0087 20.1847C78.0087 19.9394 78.0965 19.7289 78.2722 19.5533C78.4479 19.3776 78.6583 19.2898 78.9036 19.2898C79.1489 19.2898 79.3593 19.3776 79.535 19.5533C79.7106 19.7289 79.7985 19.9394 79.7985 20.1847C79.7985 20.3471 79.757 20.4962 79.6742 20.6321C79.5946 20.768 79.4869 20.8774 79.351 20.9602C79.2185 21.0398 79.0693 21.0795 78.9036 21.0795ZM78.9036 15.4119C78.6583 15.4119 78.4479 15.3241 78.2722 15.1484C78.0965 14.9728 78.0087 14.7623 78.0087 14.517C78.0087 14.2718 78.0965 14.0613 78.2722 13.8857C78.4479 13.71 78.6583 13.6222 78.9036 13.6222C79.1489 13.6222 79.3593 13.71 79.535 13.8857C79.7106 14.0613 79.7985 14.2718 79.7985 14.517C79.7985 14.6795 79.757 14.8286 79.6742 14.9645C79.5946 15.1004 79.4869 15.2098 79.351 15.2926C79.2185 15.3722 79.0693 15.4119 78.9036 15.4119Z" fill="black"/>
</svg>
