<svg width="57" height="52" viewBox="0 0 57 52" fill="none" xmlns="http://www.w3.org/2000/svg">
<path d="M28.5 47.6667C25.3802 47.6695 22.2905 47.111 19.4076 46.0232C16.5247 44.9354 13.9053 43.3395 11.6993 41.327C9.49324 39.3145 7.74395 36.9249 6.55151 34.2948C5.35907 31.6648 4.74689 28.8461 4.75001 26V25.5667C4.84503 21.3187 6.30634 17.1899 8.95231 13.6934C11.5983 10.1968 15.3122 7.48676 19.6326 5.89996C23.953 4.31315 28.6893 3.91959 33.2528 4.76819C37.8163 5.61678 42.0059 7.67012 45.3008 10.673C48.6251 13.7032 50.8893 17.5649 51.8068 21.7695C52.7244 25.9741 52.254 30.3326 50.4553 34.2932C48.6566 38.2538 45.6103 41.6386 41.7021 44.0192C37.7939 46.3998 33.1993 47.6692 28.5 47.6667V47.6667ZM28.5 29.055L34.6513 34.6667L38 31.6117L31.8488 26L38 20.3883L34.6513 17.3333L28.5 22.945L22.3488 17.3333L19 20.3883L25.1513 26L19 31.6117L22.3488 34.6667L28.5 29.0572V29.055Z" fill="white"/>
</svg>
