<svg width="48" height="39" viewBox="0 0 48 39" fill="none" xmlns="http://www.w3.org/2000/svg">
<g clip-path="url(#clip0_10_83)">
<path d="M39 1.53923e-07H9C7.81803 -0.000196901 6.6476 0.188812 5.55556 0.55623C4.46352 0.923647 3.47127 1.46227 2.6355 2.14134C1.79972 2.82041 1.1368 3.62661 0.68459 4.51389C0.232384 5.40118 -0.00024234 6.35215 1.89444e-07 7.3125V31.6875C-0.00024234 32.6478 0.232384 33.5988 0.68459 34.4861C1.1368 35.3734 1.79972 36.1796 2.6355 36.8587C3.47127 37.5377 4.46352 38.0764 5.55556 38.4438C6.6476 38.8112 7.81803 39.0002 9 39H39C40.182 39.0002 41.3524 38.8112 42.4444 38.4438C43.5365 38.0764 44.5287 37.5377 45.3645 36.8587C46.2003 36.1796 46.8632 35.3734 47.3154 34.4861C47.7676 33.5988 48.0002 32.6478 48 31.6875V7.3125C48.0002 6.35215 47.7676 5.40118 47.3154 4.51389C46.8632 3.62661 46.2003 2.82041 45.3645 2.14134C44.5287 1.46227 43.5365 0.923647 42.4444 0.55623C41.3524 0.188812 40.182 -0.000196901 39 1.53923e-07V1.53923e-07ZM32.6031 20.7855L21.1034 28.209C20.8284 28.3205 20.5231 28.3735 20.216 28.363C19.909 28.3525 19.6102 28.2789 19.3477 28.149C19.0831 28.0239 18.8626 27.8456 18.7074 27.6312C18.5522 27.4169 18.4675 27.1737 18.4615 26.925V12.0765C18.4615 11.5755 18.8123 11.1105 19.3458 10.851C19.6089 10.7214 19.908 10.648 20.2153 10.6378C20.5227 10.6276 20.8282 10.6808 21.1034 10.7925L32.6031 18.2145C33.2234 18.66 33.5945 18.9555 33.5945 19.5C33.5945 20.0445 33.1588 20.3625 32.6031 20.7855Z" fill="white"/>
</g>
<defs>
<clipPath id="clip0_10_83">
<rect width="48" height="39" fill="white"/>
</clipPath>
</defs>
</svg>
