<svg width="170" height="68" viewBox="0 0 170 68" fill="none" xmlns="http://www.w3.org/2000/svg">
<rect width="170" height="68" fill="white"/>
<path d="M23.233 21V10.8182H26.6733C27.4688 10.8182 28.1217 10.9541 28.6321 11.2259C29.1425 11.4943 29.5204 11.8639 29.7656 12.3345C30.0109 12.8052 30.1335 13.3404 30.1335 13.9403C30.1335 14.5402 30.0109 15.0722 29.7656 15.5362C29.5204 16.0002 29.1442 16.3648 28.6371 16.63C28.13 16.8918 27.482 17.0227 26.6932 17.0227H23.9091V15.9091H26.6534C27.197 15.9091 27.6345 15.8295 27.9659 15.6705C28.3007 15.5114 28.5426 15.286 28.6918 14.9943C28.8442 14.6993 28.9205 14.348 28.9205 13.9403C28.9205 13.5327 28.8442 13.1764 28.6918 12.8714C28.5393 12.5665 28.2957 12.3312 27.9609 12.1655C27.6262 11.9964 27.1837 11.9119 26.6335 11.9119H24.4659V21H23.233ZM28.0256 16.4261L30.5312 21H29.0994L26.6335 16.4261H28.0256ZM35.1486 21.1591C34.4128 21.1591 33.7781 20.9967 33.2445 20.6719C32.7142 20.3438 32.3049 19.8864 32.0165 19.2997C31.7315 18.7098 31.589 18.0237 31.589 17.2415C31.589 16.4593 31.7315 15.7699 32.0165 15.1733C32.3049 14.5734 32.7059 14.1061 33.2196 13.7713C33.7367 13.4332 34.3399 13.2642 35.0293 13.2642C35.427 13.2642 35.8198 13.3305 36.2076 13.4631C36.5953 13.5956 36.9483 13.8111 37.2665 14.1094C37.5847 14.4044 37.8382 14.7955 38.0272 15.2827C38.2161 15.7699 38.3105 16.3698 38.3105 17.0824V17.5795H32.4242V16.5653H37.1174C37.1174 16.1345 37.0312 15.75 36.8588 15.4119C36.6898 15.0739 36.4479 14.8071 36.133 14.6115C35.8214 14.416 35.4535 14.3182 35.0293 14.3182C34.562 14.3182 34.1576 14.4342 33.8162 14.6662C33.4782 14.8949 33.218 15.1932 33.0357 15.5611C32.8534 15.929 32.7623 16.3234 32.7623 16.7443V17.4205C32.7623 17.9972 32.8617 18.486 33.0605 18.8871C33.2627 19.2848 33.5428 19.5881 33.9007 19.7969C34.2587 20.0024 34.6747 20.1051 35.1486 20.1051C35.4569 20.1051 35.7353 20.062 35.9838 19.9759C36.2357 19.8864 36.4528 19.7538 36.6351 19.5781C36.8174 19.3991 36.9583 19.1771 37.0577 18.9119L38.1912 19.2301C38.0719 19.6146 37.8714 19.9527 37.5897 20.2443C37.3079 20.5327 36.9599 20.758 36.5456 20.9205C36.1313 21.0795 35.6657 21.1591 35.1486 21.1591ZM43.4959 13.3636V14.358H39.3794V13.3636H43.4959ZM40.6124 21V12.3097C40.6124 11.8722 40.7151 11.5076 40.9206 11.2159C41.1261 10.9242 41.3929 10.7055 41.7211 10.5597C42.0492 10.4138 42.3955 10.3409 42.7601 10.3409C43.0485 10.3409 43.2838 10.3641 43.4661 10.4105C43.6484 10.4569 43.7843 10.5 43.8738 10.5398L43.5357 11.554C43.476 11.5341 43.3932 11.5092 43.2871 11.4794C43.1844 11.4496 43.0485 11.4347 42.8794 11.4347C42.4917 11.4347 42.2116 11.5324 42.0392 11.728C41.8702 11.9235 41.7857 12.2102 41.7857 12.5881V21H40.6124ZM48.0275 21.1591C47.2917 21.1591 46.657 20.9967 46.1234 20.6719C45.5931 20.3438 45.1838 19.8864 44.8954 19.2997C44.6104 18.7098 44.4679 18.0237 44.4679 17.2415C44.4679 16.4593 44.6104 15.7699 44.8954 15.1733C45.1838 14.5734 45.5848 14.1061 46.0985 13.7713C46.6156 13.4332 47.2188 13.2642 47.9082 13.2642C48.3059 13.2642 48.6987 13.3305 49.0865 13.4631C49.4743 13.5956 49.8272 13.8111 50.1454 14.1094C50.4636 14.4044 50.7172 14.7955 50.9061 15.2827C51.095 15.7699 51.1895 16.3698 51.1895 17.0824V17.5795H45.3031V16.5653H49.9963C49.9963 16.1345 49.9101 15.75 49.7377 15.4119C49.5687 15.0739 49.3268 14.8071 49.0119 14.6115C48.7003 14.416 48.3324 14.3182 47.9082 14.3182C47.4409 14.3182 47.0365 14.4342 46.6951 14.6662C46.3571 14.8949 46.0969 15.1932 45.9146 15.5611C45.7323 15.929 45.6412 16.3234 45.6412 16.7443V17.4205C45.6412 17.9972 45.7406 18.486 45.9395 18.8871C46.1416 19.2848 46.4217 19.5881 46.7797 19.7969C47.1376 20.0024 47.5536 20.1051 48.0275 20.1051C48.3358 20.1051 48.6142 20.062 48.8627 19.9759C49.1146 19.8864 49.3317 19.7538 49.514 19.5781C49.6963 19.3991 49.8372 19.1771 49.9366 18.9119L51.0701 19.2301C50.9508 19.6146 50.7503 19.9527 50.4686 20.2443C50.1868 20.5327 49.8388 20.758 49.4245 20.9205C49.0102 21.0795 48.5446 21.1591 48.0275 21.1591ZM52.9743 21V13.3636H54.1078V14.517H54.1873C54.3265 14.1392 54.5784 13.8326 54.943 13.5973C55.3076 13.362 55.7186 13.2443 56.176 13.2443C56.2621 13.2443 56.3699 13.246 56.4991 13.2493C56.6284 13.2526 56.7261 13.2576 56.7924 13.2642V14.4574C56.7527 14.4474 56.6615 14.4325 56.519 14.4126C56.3798 14.3894 56.2323 14.3778 56.0765 14.3778C55.7053 14.3778 55.3739 14.4557 55.0822 14.6115C54.7939 14.764 54.5652 14.9761 54.3961 15.2479C54.2304 15.5163 54.1475 15.8229 54.1475 16.1676V21H52.9743ZM61.1525 21.1591C60.4167 21.1591 59.782 20.9967 59.2484 20.6719C58.7181 20.3438 58.3088 19.8864 58.0204 19.2997C57.7354 18.7098 57.5929 18.0237 57.5929 17.2415C57.5929 16.4593 57.7354 15.7699 58.0204 15.1733C58.3088 14.5734 58.7098 14.1061 59.2235 13.7713C59.7406 13.4332 60.3438 13.2642 61.0332 13.2642C61.4309 13.2642 61.8237 13.3305 62.2115 13.4631C62.5993 13.5956 62.9522 13.8111 63.2704 14.1094C63.5886 14.4044 63.8422 14.7955 64.0311 15.2827C64.22 15.7699 64.3145 16.3698 64.3145 17.0824V17.5795H58.4281V16.5653H63.1213C63.1213 16.1345 63.0351 15.75 62.8627 15.4119C62.6937 15.0739 62.4518 14.8071 62.1369 14.6115C61.8253 14.416 61.4574 14.3182 61.0332 14.3182C60.5659 14.3182 60.1615 14.4342 59.8201 14.6662C59.4821 14.8949 59.2219 15.1932 59.0396 15.5611C58.8573 15.929 58.7662 16.3234 58.7662 16.7443V17.4205C58.7662 17.9972 58.8656 18.486 59.0645 18.8871C59.2666 19.2848 59.5467 19.5881 59.9047 19.7969C60.2626 20.0024 60.6786 20.1051 61.1525 20.1051C61.4608 20.1051 61.7392 20.062 61.9877 19.9759C62.2396 19.8864 62.4567 19.7538 62.639 19.5781C62.8213 19.3991 62.9622 19.1771 63.0616 18.9119L64.1951 19.2301C64.0758 19.6146 63.8753 19.9527 63.5936 20.2443C63.3118 20.5327 62.9638 20.758 62.5495 20.9205C62.1352 21.0795 61.6696 21.1591 61.1525 21.1591ZM67.2725 16.4062V21H66.0993V13.3636H67.2328V14.5568H67.3322C67.5112 14.169 67.783 13.8575 68.1475 13.6222C68.5121 13.3835 68.9828 13.2642 69.5595 13.2642C70.0765 13.2642 70.5289 13.3703 70.9167 13.5824C71.3045 13.7912 71.6061 14.1094 71.8216 14.5369C72.037 14.9612 72.1447 15.4981 72.1447 16.1477V21H70.9714V16.2273C70.9714 15.6274 70.8156 15.16 70.5041 14.8253C70.1925 14.4872 69.765 14.3182 69.2214 14.3182C68.8469 14.3182 68.5121 14.3994 68.2172 14.5618C67.9255 14.7242 67.6951 14.9612 67.5261 15.2727C67.3571 15.5843 67.2725 15.9621 67.2725 16.4062ZM77.391 21.1591C76.6751 21.1591 76.0586 20.9901 75.5415 20.652C75.0245 20.3139 74.6268 19.8482 74.3484 19.255C74.07 18.6617 73.9308 17.9839 73.9308 17.2216C73.9308 16.446 74.0733 15.7616 74.3583 15.1683C74.6467 14.5717 75.0477 14.1061 75.5614 13.7713C76.0785 13.4332 76.6817 13.2642 77.3711 13.2642C77.908 13.2642 78.3919 13.3636 78.8228 13.5625C79.2537 13.7614 79.6067 14.0398 79.8817 14.3977C80.1568 14.7557 80.3275 15.1733 80.3938 15.6506H79.2205C79.131 15.3026 78.9322 14.9943 78.6239 14.7259C78.319 14.4541 77.908 14.3182 77.391 14.3182C76.9336 14.3182 76.5326 14.4375 76.1879 14.6761C75.8465 14.9115 75.5797 15.2446 75.3874 15.6754C75.1985 16.103 75.104 16.6051 75.104 17.1818C75.104 17.7718 75.1969 18.2855 75.3825 18.723C75.5714 19.1605 75.8365 19.5002 76.1779 19.7422C76.5226 19.9841 76.927 20.1051 77.391 20.1051C77.6959 20.1051 77.9727 20.0521 78.2212 19.946C78.4698 19.84 78.6803 19.6875 78.8526 19.4886C79.025 19.2898 79.1476 19.0511 79.2205 18.7727H80.3938C80.3275 19.2235 80.1635 19.6295 79.9016 19.9908C79.6431 20.3487 79.3001 20.6338 78.8725 20.8459C78.4483 21.0547 77.9544 21.1591 77.391 21.1591ZM85.3107 21.1591C84.5749 21.1591 83.9402 20.9967 83.4066 20.6719C82.8763 20.3438 82.467 19.8864 82.1786 19.2997C81.8936 18.7098 81.7511 18.0237 81.7511 17.2415C81.7511 16.4593 81.8936 15.7699 82.1786 15.1733C82.467 14.5734 82.868 14.1061 83.3817 13.7713C83.8988 13.4332 84.502 13.2642 85.1914 13.2642C85.5891 13.2642 85.9819 13.3305 86.3697 13.4631C86.7575 13.5956 87.1104 13.8111 87.4286 14.1094C87.7468 14.4044 88.0004 14.7955 88.1893 15.2827C88.3782 15.7699 88.4727 16.3698 88.4727 17.0824V17.5795H82.5863V16.5653H87.2795C87.2795 16.1345 87.1933 15.75 87.021 15.4119C86.8519 15.0739 86.61 14.8071 86.2951 14.6115C85.9835 14.416 85.6156 14.3182 85.1914 14.3182C84.7241 14.3182 84.3197 14.4342 83.9783 14.6662C83.6403 14.8949 83.3801 15.1932 83.1978 15.5611C83.0155 15.929 82.9244 16.3234 82.9244 16.7443V17.4205C82.9244 17.9972 83.0238 18.486 83.2227 18.8871C83.4248 19.2848 83.7049 19.5881 84.0629 19.7969C84.4208 20.0024 84.8368 20.1051 85.3107 20.1051C85.619 20.1051 85.8974 20.062 86.146 19.9759C86.3978 19.8864 86.6149 19.7538 86.7972 19.5781C86.9795 19.3991 87.1204 19.1771 87.2198 18.9119L88.3533 19.2301C88.234 19.6146 88.0335 19.9527 87.7518 20.2443C87.4701 20.5327 87.122 20.758 86.7077 20.9205C86.2934 21.0795 85.8278 21.1591 85.3107 21.1591ZM91.1126 21.0795C90.8673 21.0795 90.6568 20.9917 90.4812 20.8161C90.3055 20.6404 90.2177 20.4299 90.2177 20.1847C90.2177 19.9394 90.3055 19.7289 90.4812 19.5533C90.6568 19.3776 90.8673 19.2898 91.1126 19.2898C91.3578 19.2898 91.5683 19.3776 91.744 19.5533C91.9196 19.7289 92.0075 19.9394 92.0075 20.1847C92.0075 20.3471 91.966 20.4962 91.8832 20.6321C91.8036 20.768 91.6959 20.8774 91.56 20.9602C91.4274 21.0398 91.2783 21.0795 91.1126 21.0795ZM91.1126 15.4119C90.8673 15.4119 90.6568 15.3241 90.4812 15.1484C90.3055 14.9728 90.2177 14.7623 90.2177 14.517C90.2177 14.2718 90.3055 14.0613 90.4812 13.8857C90.6568 13.71 90.8673 13.6222 91.1126 13.6222C91.3578 13.6222 91.5683 13.71 91.744 13.8857C91.9196 14.0613 92.0075 14.2718 92.0075 14.517C92.0075 14.6795 91.966 14.8286 91.8832 14.9645C91.8036 15.1004 91.6959 15.2098 91.56 15.2926C91.4274 15.3722 91.2783 15.4119 91.1126 15.4119Z" fill="black"/>
</svg>
