<svg width="393" height="680" viewBox="0 0 393 680" fill="none" xmlns="http://www.w3.org/2000/svg">
<rect width="393" height="680" rx="16" fill="black"/>
<path d="M37.233 206V195.818H40.7926C41.5019 195.818 42.0869 195.941 42.5476 196.186C43.0083 196.428 43.3513 196.754 43.5767 197.165C43.8021 197.573 43.9148 198.026 43.9148 198.523C43.9148 198.96 43.8369 199.321 43.6811 199.607C43.5286 199.892 43.3265 200.117 43.0746 200.283C42.826 200.448 42.5559 200.571 42.2642 200.651V200.75C42.5758 200.77 42.889 200.879 43.2038 201.078C43.5187 201.277 43.7822 201.562 43.9943 201.933C44.2064 202.304 44.3125 202.759 44.3125 203.295C44.3125 203.806 44.1965 204.265 43.9645 204.673C43.7325 205.08 43.3662 205.403 42.8658 205.642C42.3653 205.881 41.714 206 40.9119 206H37.233ZM38.4659 204.906H40.9119C41.7173 204.906 42.2891 204.75 42.6271 204.439C42.9685 204.124 43.1392 203.743 43.1392 203.295C43.1392 202.951 43.0514 202.633 42.8757 202.341C42.7 202.046 42.4498 201.811 42.125 201.635C41.8002 201.456 41.4157 201.366 40.9716 201.366H38.4659V204.906ZM38.4659 200.293H40.7528C41.1241 200.293 41.4588 200.22 41.7571 200.074C42.0587 199.928 42.2973 199.723 42.473 199.457C42.652 199.192 42.7415 198.881 42.7415 198.523C42.7415 198.075 42.5857 197.696 42.2741 197.384C41.9626 197.069 41.4688 196.912 40.7926 196.912H38.4659V200.293ZM46.1793 206V198.364H47.3129V199.517H47.3924C47.5316 199.139 47.7835 198.833 48.1481 198.597C48.5127 198.362 48.9237 198.244 49.381 198.244C49.4672 198.244 49.5749 198.246 49.7042 198.249C49.8335 198.253 49.9312 198.258 49.9975 198.264V199.457C49.9577 199.447 49.8666 199.433 49.7241 199.413C49.5849 199.389 49.4374 199.378 49.2816 199.378C48.9104 199.378 48.579 199.456 48.2873 199.612C47.9989 199.764 47.7702 199.976 47.6012 200.248C47.4355 200.516 47.3526 200.823 47.3526 201.168V206H46.1793ZM53.6355 206.179C53.1516 206.179 52.7124 206.088 52.318 205.906C51.9236 205.72 51.6104 205.453 51.3784 205.105C51.1464 204.754 51.0304 204.33 51.0304 203.832C51.0304 203.395 51.1165 203.04 51.2889 202.768C51.4612 202.493 51.6916 202.278 51.9799 202.122C52.2683 201.966 52.5865 201.85 52.9345 201.774C53.2858 201.695 53.6388 201.632 53.9934 201.585C54.4574 201.526 54.8336 201.481 55.122 201.451C55.4136 201.418 55.6258 201.363 55.7583 201.287C55.8942 201.211 55.9622 201.078 55.9622 200.889V200.849C55.9622 200.359 55.8279 199.978 55.5595 199.706C55.2943 199.434 54.8916 199.298 54.3514 199.298C53.7913 199.298 53.3521 199.421 53.0339 199.666C52.7157 199.911 52.492 200.173 52.3627 200.452L51.2491 200.054C51.448 199.59 51.7131 199.229 52.0446 198.97C52.3793 198.708 52.7439 198.526 53.1383 198.423C53.536 198.317 53.9271 198.264 54.3116 198.264C54.5569 198.264 54.8386 198.294 55.1568 198.354C55.4783 198.41 55.7882 198.528 56.0865 198.707C56.3881 198.886 56.6383 199.156 56.8372 199.517C57.036 199.878 57.1355 200.362 57.1355 200.969V206H55.9622V204.966H55.9025C55.823 205.132 55.6904 205.309 55.5048 205.498C55.3192 205.687 55.0723 205.848 54.764 205.98C54.4558 206.113 54.0796 206.179 53.6355 206.179ZM53.8145 205.125C54.2785 205.125 54.6696 205.034 54.9877 204.852C55.3092 204.669 55.5512 204.434 55.7136 204.146C55.8793 203.857 55.9622 203.554 55.9622 203.236V202.162C55.9125 202.222 55.8031 202.276 55.6341 202.326C55.4683 202.372 55.2761 202.414 55.0574 202.45C54.8419 202.483 54.6315 202.513 54.426 202.54C54.2238 202.563 54.0597 202.583 53.9338 202.599C53.6288 202.639 53.3438 202.704 53.0787 202.793C52.8168 202.879 52.6047 203.01 52.4423 203.186C52.2832 203.358 52.2037 203.594 52.2037 203.892C52.2037 204.3 52.3545 204.608 52.6561 204.817C52.961 205.022 53.3471 205.125 53.8145 205.125ZM60.4503 201.406V206H59.277V198.364H60.4105V199.557H60.5099C60.6889 199.169 60.9607 198.857 61.3253 198.622C61.6899 198.384 62.1605 198.264 62.7372 198.264C63.2543 198.264 63.7067 198.37 64.0945 198.582C64.4822 198.791 64.7839 199.109 64.9993 199.537C65.2147 199.961 65.3224 200.498 65.3224 201.148V206H64.1491V201.227C64.1491 200.627 63.9934 200.16 63.6818 199.825C63.3703 199.487 62.9427 199.318 62.3991 199.318C62.0246 199.318 61.6899 199.399 61.3949 199.562C61.1032 199.724 60.8729 199.961 60.7038 200.273C60.5348 200.584 60.4503 200.962 60.4503 201.406ZM70.35 206.159C69.7136 206.159 69.1518 205.998 68.6646 205.677C68.1774 205.352 67.7962 204.895 67.5211 204.305C67.246 203.711 67.1085 203.01 67.1085 202.202C67.1085 201.4 67.246 200.704 67.5211 200.114C67.7962 199.524 68.179 199.068 68.6696 198.746C69.1601 198.425 69.7269 198.264 70.3699 198.264C70.867 198.264 71.2598 198.347 71.5481 198.513C71.8398 198.675 72.0618 198.861 72.2143 199.07C72.3701 199.275 72.4911 199.444 72.5772 199.577H72.6767V195.818H73.85V206H72.7164V204.827H72.5772C72.4911 204.966 72.3684 205.142 72.2093 205.354C72.0502 205.562 71.8232 205.75 71.5282 205.915C71.2333 206.078 70.8405 206.159 70.35 206.159ZM70.5091 205.105C70.9797 205.105 71.3774 204.982 71.7022 204.737C72.027 204.489 72.274 204.146 72.443 203.708C72.612 203.267 72.6966 202.759 72.6966 202.182C72.6966 201.612 72.6137 201.113 72.448 200.685C72.2823 200.254 72.037 199.92 71.7122 199.681C71.3874 199.439 70.9863 199.318 70.5091 199.318C70.0119 199.318 69.5976 199.446 69.2662 199.701C68.938 199.953 68.6911 200.296 68.5254 200.73C68.363 201.161 68.2818 201.645 68.2818 202.182C68.2818 202.725 68.3646 203.219 68.5304 203.663C68.6994 204.104 68.948 204.455 69.2761 204.717C69.6075 204.976 70.0185 205.105 70.5091 205.105ZM77.0169 206.08C76.7716 206.08 76.5611 205.992 76.3855 205.816C76.2098 205.64 76.122 205.43 76.122 205.185C76.122 204.939 76.2098 204.729 76.3855 204.553C76.5611 204.378 76.7716 204.29 77.0169 204.29C77.2621 204.29 77.4726 204.378 77.6483 204.553C77.8239 204.729 77.9118 204.939 77.9118 205.185C77.9118 205.347 77.8703 205.496 77.7875 205.632C77.7079 205.768 77.6002 205.877 77.4643 205.96C77.3317 206.04 77.1826 206.08 77.0169 206.08ZM77.0169 200.412C76.7716 200.412 76.5611 200.324 76.3855 200.148C76.2098 199.973 76.122 199.762 76.122 199.517C76.122 199.272 76.2098 199.061 76.3855 198.886C76.5611 198.71 76.7716 198.622 77.0169 198.622C77.2621 198.622 77.4726 198.71 77.6483 198.886C77.8239 199.061 77.9118 199.272 77.9118 199.517C77.9118 199.679 77.8703 199.829 77.7875 199.964C77.7079 200.1 77.6002 200.21 77.4643 200.293C77.3317 200.372 77.1826 200.412 77.0169 200.412Z" fill="black"/>
<path d="M46.233 276.818H47.7045L51.1648 285.27H51.2841L54.7443 276.818H56.2159V287H55.0625V279.264H54.9631L51.7812 287H50.6676L47.4858 279.264H47.3864V287H46.233V276.818ZM61.6312 287.159C60.9418 287.159 60.3369 286.995 59.8166 286.667C59.2995 286.339 58.8952 285.88 58.6035 285.29C58.3152 284.7 58.171 284.01 58.171 283.222C58.171 282.426 58.3152 281.732 58.6035 281.138C58.8952 280.545 59.2995 280.085 59.8166 279.756C60.3369 279.428 60.9418 279.264 61.6312 279.264C62.3206 279.264 62.9238 279.428 63.4409 279.756C63.9612 280.085 64.3656 280.545 64.6539 281.138C64.9456 281.732 65.0914 282.426 65.0914 283.222C65.0914 284.01 64.9456 284.7 64.6539 285.29C64.3656 285.88 63.9612 286.339 63.4409 286.667C62.9238 286.995 62.3206 287.159 61.6312 287.159ZM61.6312 286.105C62.1549 286.105 62.5858 285.971 62.9238 285.702C63.2619 285.434 63.5121 285.081 63.6745 284.643C63.8369 284.206 63.9181 283.732 63.9181 283.222C63.9181 282.711 63.8369 282.236 63.6745 281.795C63.5121 281.354 63.2619 280.998 62.9238 280.726C62.5858 280.454 62.1549 280.318 61.6312 280.318C61.1075 280.318 60.6767 280.454 60.3386 280.726C60.0005 280.998 59.7503 281.354 59.5879 281.795C59.4255 282.236 59.3443 282.711 59.3443 283.222C59.3443 283.732 59.4255 284.206 59.5879 284.643C59.7503 285.081 60.0005 285.434 60.3386 285.702C60.6767 285.971 61.1075 286.105 61.6312 286.105ZM69.766 287.159C69.1296 287.159 68.5678 286.998 68.0806 286.677C67.5934 286.352 67.2122 285.895 66.9371 285.305C66.6621 284.711 66.5245 284.01 66.5245 283.202C66.5245 282.4 66.6621 281.704 66.9371 281.114C67.2122 280.524 67.5951 280.068 68.0856 279.746C68.5761 279.425 69.1429 279.264 69.7859 279.264C70.283 279.264 70.6758 279.347 70.9641 279.513C71.2558 279.675 71.4779 279.861 71.6303 280.07C71.7861 280.275 71.9071 280.444 71.9933 280.577H72.0927V276.818H73.266V287H72.1325V285.827H71.9933C71.9071 285.966 71.7844 286.142 71.6254 286.354C71.4663 286.562 71.2392 286.75 70.9442 286.915C70.6493 287.078 70.2565 287.159 69.766 287.159ZM69.9251 286.105C70.3957 286.105 70.7934 285.982 71.1183 285.737C71.4431 285.489 71.69 285.146 71.859 284.708C72.0281 284.267 72.1126 283.759 72.1126 283.182C72.1126 282.612 72.0297 282.113 71.864 281.685C71.6983 281.254 71.453 280.92 71.1282 280.681C70.8034 280.439 70.4023 280.318 69.9251 280.318C69.4279 280.318 69.0136 280.446 68.6822 280.701C68.354 280.953 68.1071 281.296 67.9414 281.73C67.779 282.161 67.6978 282.645 67.6978 283.182C67.6978 283.725 67.7807 284.219 67.9464 284.663C68.1154 285.104 68.364 285.455 68.6921 285.717C69.0236 285.976 69.4345 286.105 69.9251 286.105ZM78.7795 287.159C78.0437 287.159 77.409 286.997 76.8754 286.672C76.3451 286.344 75.9357 285.886 75.6474 285.3C75.3623 284.71 75.2198 284.024 75.2198 283.241C75.2198 282.459 75.3623 281.77 75.6474 281.173C75.9357 280.573 76.3368 280.106 76.8505 279.771C77.3675 279.433 77.9708 279.264 78.6602 279.264C79.0579 279.264 79.4506 279.33 79.8384 279.463C80.2262 279.596 80.5792 279.811 80.8974 280.109C81.2156 280.404 81.4691 280.795 81.658 281.283C81.8469 281.77 81.9414 282.37 81.9414 283.082V283.58H76.055V282.565H80.7482C80.7482 282.134 80.6621 281.75 80.4897 281.412C80.3207 281.074 80.0787 280.807 79.7638 280.612C79.4523 280.416 79.0844 280.318 78.6602 280.318C78.1928 280.318 77.7885 280.434 77.4471 280.666C77.109 280.895 76.8488 281.193 76.6665 281.561C76.4843 281.929 76.3931 282.323 76.3931 282.744V283.42C76.3931 283.997 76.4925 284.486 76.6914 284.887C76.8936 285.285 77.1737 285.588 77.5316 285.797C77.8896 286.002 78.3055 286.105 78.7795 286.105C79.0877 286.105 79.3661 286.062 79.6147 285.976C79.8666 285.886 80.0837 285.754 80.266 285.578C80.4483 285.399 80.5891 285.177 80.6886 284.912L81.8221 285.23C81.7028 285.615 81.5022 285.953 81.2205 286.244C80.9388 286.533 80.5908 286.758 80.1765 286.92C79.7622 287.08 79.2965 287.159 78.7795 287.159ZM84.8995 276.818V287H83.7262V276.818H84.8995ZM87.9036 287.08C87.6583 287.08 87.4479 286.992 87.2722 286.816C87.0965 286.64 87.0087 286.43 87.0087 286.185C87.0087 285.939 87.0965 285.729 87.2722 285.553C87.4479 285.378 87.6583 285.29 87.9036 285.29C88.1489 285.29 88.3593 285.378 88.535 285.553C88.7106 285.729 88.7985 285.939 88.7985 286.185C88.7985 286.347 88.757 286.496 88.6742 286.632C88.5946 286.768 88.4869 286.877 88.351 286.96C88.2185 287.04 88.0693 287.08 87.9036 287.08ZM87.9036 281.412C87.6583 281.412 87.4479 281.324 87.2722 281.148C87.0965 280.973 87.0087 280.762 87.0087 280.517C87.0087 280.272 87.0965 280.061 87.2722 279.886C87.4479 279.71 87.6583 279.622 87.9036 279.622C88.1489 279.622 88.3593 279.71 88.535 279.886C88.7106 280.061 88.7985 280.272 88.7985 280.517C88.7985 280.679 88.757 280.829 88.6742 280.964C88.5946 281.1 88.4869 281.21 88.351 281.293C88.2185 281.372 88.0693 281.412 87.9036 281.412Z" fill="black"/>
<path d="M246.426 280H245.193C245.12 279.645 244.993 279.334 244.81 279.065C244.631 278.797 244.413 278.571 244.154 278.389C243.899 278.204 243.616 278.064 243.304 277.972C242.992 277.879 242.668 277.832 242.33 277.832C241.713 277.832 241.155 277.988 240.654 278.3C240.157 278.611 239.761 279.07 239.466 279.677C239.174 280.283 239.028 281.027 239.028 281.909C239.028 282.791 239.174 283.535 239.466 284.141C239.761 284.748 240.157 285.207 240.654 285.518C241.155 285.83 241.713 285.986 242.33 285.986C242.668 285.986 242.992 285.939 243.304 285.847C243.616 285.754 243.899 285.616 244.154 285.434C244.413 285.248 244.631 285.021 244.81 284.753C244.993 284.481 245.12 284.17 245.193 283.818H246.426C246.333 284.339 246.164 284.804 245.919 285.215C245.674 285.626 245.369 285.976 245.004 286.264C244.64 286.549 244.23 286.766 243.776 286.915C243.326 287.065 242.843 287.139 242.33 287.139C241.461 287.139 240.689 286.927 240.013 286.503C239.337 286.079 238.805 285.475 238.417 284.693C238.029 283.911 237.835 282.983 237.835 281.909C237.835 280.835 238.029 279.907 238.417 279.125C238.805 278.343 239.337 277.74 240.013 277.315C240.689 276.891 241.461 276.679 242.33 276.679C242.843 276.679 243.326 276.754 243.776 276.903C244.23 277.052 244.64 277.271 245.004 277.559C245.369 277.844 245.674 278.192 245.919 278.603C246.164 279.011 246.333 279.476 246.426 280ZM251.362 287.159C250.672 287.159 250.067 286.995 249.547 286.667C249.03 286.339 248.626 285.88 248.334 285.29C248.046 284.7 247.901 284.01 247.901 283.222C247.901 282.426 248.046 281.732 248.334 281.138C248.626 280.545 249.03 280.085 249.547 279.756C250.067 279.428 250.672 279.264 251.362 279.264C252.051 279.264 252.654 279.428 253.171 279.756C253.692 280.085 254.096 280.545 254.384 281.138C254.676 281.732 254.822 282.426 254.822 283.222C254.822 284.01 254.676 284.7 254.384 285.29C254.096 285.88 253.692 286.339 253.171 286.667C252.654 286.995 252.051 287.159 251.362 287.159ZM251.362 286.105C251.885 286.105 252.316 285.971 252.654 285.702C252.992 285.434 253.243 285.081 253.405 284.643C253.567 284.206 253.649 283.732 253.649 283.222C253.649 282.711 253.567 282.236 253.405 281.795C253.243 281.354 252.992 280.998 252.654 280.726C252.316 280.454 251.885 280.318 251.362 280.318C250.838 280.318 250.407 280.454 250.069 280.726C249.731 280.998 249.481 281.354 249.318 281.795C249.156 282.236 249.075 282.711 249.075 283.222C249.075 283.732 249.156 284.206 249.318 284.643C249.481 285.081 249.731 285.434 250.069 285.702C250.407 285.971 250.838 286.105 251.362 286.105ZM257.786 276.818V287H256.613V276.818H257.786ZM263.037 287.159C262.348 287.159 261.743 286.995 261.223 286.667C260.706 286.339 260.301 285.88 260.01 285.29C259.721 284.7 259.577 284.01 259.577 283.222C259.577 282.426 259.721 281.732 260.01 281.138C260.301 280.545 260.706 280.085 261.223 279.756C261.743 279.428 262.348 279.264 263.037 279.264C263.727 279.264 264.33 279.428 264.847 279.756C265.367 280.085 265.772 280.545 266.06 281.138C266.352 281.732 266.498 282.426 266.498 283.222C266.498 284.01 266.352 284.7 266.06 285.29C265.772 285.88 265.367 286.339 264.847 286.667C264.33 286.995 263.727 287.159 263.037 287.159ZM263.037 286.105C263.561 286.105 263.992 285.971 264.33 285.702C264.668 285.434 264.918 285.081 265.081 284.643C265.243 284.206 265.324 283.732 265.324 283.222C265.324 282.711 265.243 282.236 265.081 281.795C264.918 281.354 264.668 280.998 264.33 280.726C263.992 280.454 263.561 280.318 263.037 280.318C262.514 280.318 262.083 280.454 261.745 280.726C261.407 280.998 261.157 281.354 260.994 281.795C260.832 282.236 260.751 282.711 260.751 283.222C260.751 283.732 260.832 284.206 260.994 284.643C261.157 285.081 261.407 285.434 261.745 285.702C262.083 285.971 262.514 286.105 263.037 286.105ZM268.289 287V279.364H269.422V280.517H269.502C269.641 280.139 269.893 279.833 270.257 279.597C270.622 279.362 271.033 279.244 271.49 279.244C271.577 279.244 271.684 279.246 271.814 279.249C271.943 279.253 272.041 279.258 272.107 279.264V280.457C272.067 280.447 271.976 280.433 271.833 280.413C271.694 280.389 271.547 280.378 271.391 280.378C271.02 280.378 270.688 280.456 270.397 280.612C270.108 280.764 269.88 280.976 269.711 281.248C269.545 281.516 269.462 281.823 269.462 282.168V287H268.289ZM274.353 287.08C274.108 287.08 273.897 286.992 273.721 286.816C273.546 286.64 273.458 286.43 273.458 286.185C273.458 285.939 273.546 285.729 273.721 285.553C273.897 285.378 274.108 285.29 274.353 285.29C274.598 285.29 274.809 285.378 274.984 285.553C275.16 285.729 275.248 285.939 275.248 286.185C275.248 286.347 275.206 286.496 275.123 286.632C275.044 286.768 274.936 286.877 274.8 286.96C274.668 287.04 274.519 287.08 274.353 287.08ZM274.353 281.412C274.108 281.412 273.897 281.324 273.721 281.148C273.546 280.973 273.458 280.762 273.458 280.517C273.458 280.272 273.546 280.061 273.721 279.886C273.897 279.71 274.108 279.622 274.353 279.622C274.598 279.622 274.809 279.71 274.984 279.886C275.16 280.061 275.248 280.272 275.248 280.517C275.248 280.679 275.206 280.829 275.123 280.964C275.044 281.1 274.936 281.21 274.8 281.293C274.668 281.372 274.519 281.412 274.353 281.412Z" fill="black"/>
<path d="M55.6506 224.818L58.6733 233.389H58.7926L61.8153 224.818H63.108L59.3693 235H58.0966L54.358 224.818H55.6506ZM66.9261 235.159C66.2367 235.159 65.6319 234.995 65.1115 234.667C64.5945 234.339 64.1901 233.88 63.8984 233.29C63.6101 232.7 63.4659 232.01 63.4659 231.222C63.4659 230.426 63.6101 229.732 63.8984 229.138C64.1901 228.545 64.5945 228.085 65.1115 227.756C65.6319 227.428 66.2367 227.264 66.9261 227.264C67.6155 227.264 68.2188 227.428 68.7358 227.756C69.2562 228.085 69.6605 228.545 69.9489 229.138C70.2405 229.732 70.3864 230.426 70.3864 231.222C70.3864 232.01 70.2405 232.7 69.9489 233.29C69.6605 233.88 69.2562 234.339 68.7358 234.667C68.2188 234.995 67.6155 235.159 66.9261 235.159ZM66.9261 234.105C67.4498 234.105 67.8807 233.971 68.2188 233.702C68.5568 233.434 68.8071 233.081 68.9695 232.643C69.1319 232.206 69.2131 231.732 69.2131 231.222C69.2131 230.711 69.1319 230.236 68.9695 229.795C68.8071 229.354 68.5568 228.998 68.2188 228.726C67.8807 228.454 67.4498 228.318 66.9261 228.318C66.4025 228.318 65.9716 228.454 65.6335 228.726C65.2955 228.998 65.0452 229.354 64.8828 229.795C64.7204 230.236 64.6392 230.711 64.6392 231.222C64.6392 231.732 64.7204 232.206 64.8828 232.643C65.0452 233.081 65.2955 233.434 65.6335 233.702C65.9716 233.971 66.4025 234.105 66.9261 234.105ZM73.3507 224.818V235H72.1774V224.818H73.3507ZM76.5934 232.216L76.5735 230.764H76.8121L80.1531 227.364H81.6048L78.0451 230.963H77.9457L76.5934 232.216ZM75.4996 235V224.818H76.6729V235H75.4996ZM80.3519 235L77.369 231.222L78.2042 230.406L81.8434 235H80.3519ZM88.524 229.074L87.47 229.372C87.4037 229.196 87.3059 229.026 87.1767 228.86C87.0507 228.691 86.8784 228.552 86.6596 228.442C86.4409 228.333 86.1608 228.278 85.8194 228.278C85.3521 228.278 84.9627 228.386 84.6511 228.602C84.3429 228.814 84.1887 229.084 84.1887 229.412C84.1887 229.704 84.2948 229.934 84.5069 230.103C84.719 230.272 85.0505 230.413 85.5012 230.526L86.6348 230.804C87.3175 230.97 87.8263 231.223 88.161 231.565C88.4958 231.903 88.6632 232.339 88.6632 232.872C88.6632 233.31 88.5372 233.701 88.2853 234.045C88.0368 234.39 87.6887 234.662 87.2413 234.861C86.7939 235.06 86.2735 235.159 85.6802 235.159C84.9013 235.159 84.2567 234.99 83.7463 234.652C83.2359 234.314 82.9127 233.82 82.7768 233.17L83.8904 232.892C83.9965 233.303 84.197 233.611 84.492 233.817C84.7903 234.022 85.1797 234.125 85.6603 234.125C86.2072 234.125 86.6414 234.009 86.9629 233.777C87.2877 233.542 87.4501 233.26 87.4501 232.932C87.4501 232.667 87.3573 232.445 87.1717 232.266C86.9861 232.083 86.7011 231.947 86.3166 231.858L85.0439 231.56C84.3445 231.394 83.8308 231.137 83.5027 230.789C83.1779 230.438 83.0154 229.999 83.0154 229.472C83.0154 229.041 83.1364 228.66 83.3784 228.328C83.6236 227.997 83.9567 227.737 84.3777 227.548C84.8019 227.359 85.2825 227.264 85.8194 227.264C86.5751 227.264 87.1684 227.43 87.5993 227.761C88.0334 228.093 88.3417 228.53 88.524 229.074ZM92.1594 235L89.8327 227.364H91.0657L92.7163 233.21H92.7958L94.4265 227.364H95.6793L97.2901 233.19H97.3697L99.0202 227.364H100.253L97.9265 235H96.7731L95.1026 229.134H94.9833L93.3129 235H92.1594ZM104.051 235.179C103.568 235.179 103.128 235.088 102.734 234.906C102.34 234.72 102.026 234.453 101.794 234.105C101.562 233.754 101.446 233.33 101.446 232.832C101.446 232.395 101.533 232.04 101.705 231.768C101.877 231.493 102.108 231.278 102.396 231.122C102.684 230.966 103.002 230.85 103.35 230.774C103.702 230.695 104.055 230.632 104.409 230.585C104.873 230.526 105.25 230.481 105.538 230.451C105.83 230.418 106.042 230.363 106.174 230.287C106.31 230.211 106.378 230.078 106.378 229.889V229.849C106.378 229.359 106.244 228.978 105.975 228.706C105.71 228.434 105.308 228.298 104.767 228.298C104.207 228.298 103.768 228.421 103.45 228.666C103.132 228.911 102.908 229.173 102.779 229.452L101.665 229.054C101.864 228.59 102.129 228.229 102.461 227.97C102.795 227.708 103.16 227.526 103.554 227.423C103.952 227.317 104.343 227.264 104.728 227.264C104.973 227.264 105.255 227.294 105.573 227.354C105.894 227.41 106.204 227.528 106.502 227.707C106.804 227.886 107.054 228.156 107.253 228.517C107.452 228.878 107.551 229.362 107.551 229.969V235H106.378V233.966H106.319C106.239 234.132 106.106 234.309 105.921 234.498C105.735 234.687 105.488 234.848 105.18 234.98C104.872 235.113 104.496 235.179 104.051 235.179ZM104.23 234.125C104.694 234.125 105.086 234.034 105.404 233.852C105.725 233.669 105.967 233.434 106.13 233.146C106.295 232.857 106.378 232.554 106.378 232.236V231.162C106.328 231.222 106.219 231.276 106.05 231.326C105.884 231.372 105.692 231.414 105.473 231.45C105.258 231.483 105.047 231.513 104.842 231.54C104.64 231.563 104.476 231.583 104.35 231.599C104.045 231.639 103.76 231.704 103.495 231.793C103.233 231.879 103.021 232.01 102.858 232.186C102.699 232.358 102.62 232.594 102.62 232.892C102.62 233.3 102.77 233.608 103.072 233.817C103.377 234.022 103.763 234.125 104.23 234.125ZM112.775 238.023C112.209 238.023 111.721 237.95 111.314 237.804C110.906 237.661 110.566 237.473 110.295 237.237C110.026 237.005 109.812 236.757 109.653 236.491L110.588 235.835C110.694 235.974 110.828 236.134 110.991 236.312C111.153 236.495 111.375 236.652 111.657 236.785C111.942 236.921 112.315 236.989 112.775 236.989C113.392 236.989 113.901 236.839 114.302 236.541C114.703 236.243 114.903 235.776 114.903 235.139V233.588H114.804C114.718 233.727 114.595 233.9 114.436 234.105C114.28 234.307 114.055 234.488 113.76 234.647C113.468 234.803 113.074 234.881 112.577 234.881C111.96 234.881 111.407 234.735 110.916 234.443C110.429 234.152 110.043 233.727 109.758 233.17C109.476 232.614 109.335 231.937 109.335 231.142C109.335 230.36 109.473 229.679 109.748 229.099C110.023 228.515 110.406 228.065 110.896 227.746C111.387 227.425 111.953 227.264 112.596 227.264C113.094 227.264 113.488 227.347 113.78 227.513C114.075 227.675 114.3 227.861 114.456 228.07C114.615 228.275 114.738 228.444 114.824 228.577H114.943V227.364H116.077V235.219C116.077 235.875 115.927 236.409 115.629 236.82C115.334 237.234 114.936 237.537 114.436 237.729C113.939 237.925 113.385 238.023 112.775 238.023ZM112.736 233.827C113.206 233.827 113.604 233.719 113.929 233.504C114.254 233.288 114.501 232.978 114.67 232.574C114.839 232.17 114.923 231.686 114.923 231.122C114.923 230.572 114.84 230.086 114.675 229.665C114.509 229.245 114.264 228.915 113.939 228.676C113.614 228.437 113.213 228.318 112.736 228.318C112.238 228.318 111.824 228.444 111.493 228.696C111.165 228.948 110.918 229.286 110.752 229.71C110.59 230.134 110.508 230.605 110.508 231.122C110.508 231.652 110.591 232.121 110.757 232.529C110.926 232.933 111.175 233.252 111.503 233.484C111.834 233.712 112.245 233.827 112.736 233.827ZM121.426 235.159C120.69 235.159 120.055 234.997 119.522 234.672C118.992 234.344 118.582 233.886 118.294 233.3C118.009 232.71 117.866 232.024 117.866 231.241C117.866 230.459 118.009 229.77 118.294 229.173C118.582 228.573 118.983 228.106 119.497 227.771C120.014 227.433 120.617 227.264 121.307 227.264C121.704 227.264 122.097 227.33 122.485 227.463C122.873 227.596 123.226 227.811 123.544 228.109C123.862 228.404 124.116 228.795 124.305 229.283C124.493 229.77 124.588 230.37 124.588 231.082V231.58H118.702V230.565H123.395C123.395 230.134 123.309 229.75 123.136 229.412C122.967 229.074 122.725 228.807 122.41 228.612C122.099 228.416 121.731 228.318 121.307 228.318C120.839 228.318 120.435 228.434 120.094 228.666C119.756 228.895 119.495 229.193 119.313 229.561C119.131 229.929 119.04 230.323 119.04 230.744V231.42C119.04 231.997 119.139 232.486 119.338 232.887C119.54 233.285 119.82 233.588 120.178 233.797C120.536 234.002 120.952 234.105 121.426 234.105C121.734 234.105 122.013 234.062 122.261 233.976C122.513 233.886 122.73 233.754 122.912 233.578C123.095 233.399 123.236 233.177 123.335 232.912L124.469 233.23C124.349 233.615 124.149 233.953 123.867 234.244C123.585 234.533 123.237 234.758 122.823 234.92C122.409 235.08 121.943 235.159 121.426 235.159ZM127.546 230.406V235H126.373V227.364H127.506V228.557H127.606C127.785 228.169 128.056 227.857 128.421 227.622C128.786 227.384 129.256 227.264 129.833 227.264C130.35 227.264 130.802 227.37 131.19 227.582C131.578 227.791 131.88 228.109 132.095 228.537C132.31 228.961 132.418 229.498 132.418 230.148V235H131.245V230.227C131.245 229.627 131.089 229.16 130.778 228.825C130.466 228.487 130.038 228.318 129.495 228.318C129.12 228.318 128.786 228.399 128.491 228.562C128.199 228.724 127.969 228.961 127.8 229.273C127.631 229.584 127.546 229.962 127.546 230.406Z" fill="black"/>
<path d="M250.233 235V224.818H253.793C254.502 224.818 255.087 224.941 255.548 225.186C256.008 225.428 256.351 225.754 256.577 226.165C256.802 226.573 256.915 227.026 256.915 227.523C256.915 227.96 256.837 228.321 256.681 228.607C256.529 228.892 256.326 229.117 256.075 229.283C255.826 229.448 255.556 229.571 255.264 229.651V229.75C255.576 229.77 255.889 229.879 256.204 230.078C256.519 230.277 256.782 230.562 256.994 230.933C257.206 231.304 257.312 231.759 257.312 232.295C257.312 232.806 257.196 233.265 256.964 233.673C256.732 234.08 256.366 234.403 255.866 234.642C255.365 234.881 254.714 235 253.912 235H250.233ZM251.466 233.906H253.912C254.717 233.906 255.289 233.75 255.627 233.439C255.969 233.124 256.139 232.743 256.139 232.295C256.139 231.951 256.051 231.633 255.876 231.341C255.7 231.046 255.45 230.811 255.125 230.635C254.8 230.456 254.416 230.366 253.972 230.366H251.466V233.906ZM251.466 229.293H253.753C254.124 229.293 254.459 229.22 254.757 229.074C255.059 228.928 255.297 228.723 255.473 228.457C255.652 228.192 255.741 227.881 255.741 227.523C255.741 227.075 255.586 226.696 255.274 226.384C254.963 226.069 254.469 225.912 253.793 225.912H251.466V229.293ZM262.381 235.159C261.645 235.159 261.011 234.997 260.477 234.672C259.947 234.344 259.537 233.886 259.249 233.3C258.964 232.71 258.821 232.024 258.821 231.241C258.821 230.459 258.964 229.77 259.249 229.173C259.537 228.573 259.938 228.106 260.452 227.771C260.969 227.433 261.572 227.264 262.262 227.264C262.659 227.264 263.052 227.33 263.44 227.463C263.828 227.596 264.181 227.811 264.499 228.109C264.817 228.404 265.071 228.795 265.26 229.283C265.449 229.77 265.543 230.37 265.543 231.082V231.58H259.657V230.565H264.35C264.35 230.134 264.264 229.75 264.091 229.412C263.922 229.074 263.68 228.807 263.365 228.612C263.054 228.416 262.686 228.318 262.262 228.318C261.794 228.318 261.39 228.434 261.049 228.666C260.711 228.895 260.45 229.193 260.268 229.561C260.086 229.929 259.995 230.323 259.995 230.744V231.42C259.995 231.997 260.094 232.486 260.293 232.887C260.495 233.285 260.775 233.588 261.133 233.797C261.491 234.002 261.907 234.105 262.381 234.105C262.689 234.105 262.968 234.062 263.216 233.976C263.468 233.886 263.685 233.754 263.868 233.578C264.05 233.399 264.191 233.177 264.29 232.912L265.424 233.23C265.304 233.615 265.104 233.953 264.822 234.244C264.54 234.533 264.192 234.758 263.778 234.92C263.364 235.08 262.898 235.159 262.381 235.159ZM270.529 235.159C269.794 235.159 269.159 234.997 268.625 234.672C268.095 234.344 267.686 233.886 267.397 233.3C267.112 232.71 266.97 232.024 266.97 231.241C266.97 230.459 267.112 229.77 267.397 229.173C267.686 228.573 268.087 228.106 268.6 227.771C269.118 227.433 269.721 227.264 270.41 227.264C270.808 227.264 271.201 227.33 271.588 227.463C271.976 227.596 272.329 227.811 272.647 228.109C272.966 228.404 273.219 228.795 273.408 229.283C273.597 229.77 273.691 230.37 273.691 231.082V231.58H267.805V230.565H272.498C272.498 230.134 272.412 229.75 272.24 229.412C272.071 229.074 271.829 228.807 271.514 228.612C271.202 228.416 270.834 228.318 270.41 228.318C269.943 228.318 269.538 228.434 269.197 228.666C268.859 228.895 268.599 229.193 268.417 229.561C268.234 229.929 268.143 230.323 268.143 230.744V231.42C268.143 231.997 268.243 232.486 268.441 232.887C268.644 233.285 268.924 233.588 269.282 233.797C269.64 234.002 270.056 234.105 270.529 234.105C270.838 234.105 271.116 234.062 271.365 233.976C271.617 233.886 271.834 233.754 272.016 233.578C272.198 233.399 272.339 233.177 272.439 232.912L273.572 233.23C273.453 233.615 273.252 233.953 272.971 234.244C272.689 234.533 272.341 234.758 271.926 234.92C271.512 235.08 271.047 235.159 270.529 235.159ZM278.797 227.364V228.358H274.84V227.364H278.797ZM275.993 225.534H277.167V232.812C277.167 233.144 277.215 233.393 277.311 233.558C277.41 233.721 277.536 233.83 277.689 233.886C277.844 233.939 278.008 233.966 278.181 233.966C278.31 233.966 278.416 233.959 278.499 233.946C278.582 233.929 278.648 233.916 278.698 233.906L278.936 234.96C278.857 234.99 278.746 235.02 278.603 235.05C278.461 235.083 278.28 235.099 278.061 235.099C277.73 235.099 277.405 235.028 277.087 234.886C276.772 234.743 276.51 234.526 276.301 234.234C276.096 233.943 275.993 233.575 275.993 233.131V225.534ZM281.9 224.818V235H280.726V224.818H281.9ZM287.25 235.159C286.514 235.159 285.88 234.997 285.346 234.672C284.816 234.344 284.406 233.886 284.118 233.3C283.833 232.71 283.691 232.024 283.691 231.241C283.691 230.459 283.833 229.77 284.118 229.173C284.406 228.573 284.807 228.106 285.321 227.771C285.838 227.433 286.441 227.264 287.131 227.264C287.529 227.264 287.921 227.33 288.309 227.463C288.697 227.596 289.05 227.811 289.368 228.109C289.686 228.404 289.94 228.795 290.129 229.283C290.318 229.77 290.412 230.37 290.412 231.082V231.58H284.526V230.565H289.219C289.219 230.134 289.133 229.75 288.96 229.412C288.791 229.074 288.549 228.807 288.235 228.612C287.923 228.416 287.555 228.318 287.131 228.318C286.664 228.318 286.259 228.434 285.918 228.666C285.58 228.895 285.32 229.193 285.137 229.561C284.955 229.929 284.864 230.323 284.864 230.744V231.42C284.864 231.997 284.963 232.486 285.162 232.887C285.364 233.285 285.644 233.588 286.002 233.797C286.36 234.002 286.776 234.105 287.25 234.105C287.558 234.105 287.837 234.062 288.085 233.976C288.337 233.886 288.554 233.754 288.737 233.578C288.919 233.399 289.06 233.177 289.159 232.912L290.293 233.23C290.173 233.615 289.973 233.953 289.691 234.244C289.41 234.533 289.061 234.758 288.647 234.92C288.233 235.08 287.767 235.159 287.25 235.159Z" fill="black"/>
<path d="M73.054 317V316.105L76.4148 312.426C76.8092 311.995 77.134 311.621 77.3892 311.303C77.6444 310.981 77.8333 310.679 77.956 310.398C78.0819 310.113 78.1449 309.814 78.1449 309.503C78.1449 309.145 78.0587 308.835 77.8864 308.573C77.7173 308.311 77.4853 308.109 77.1903 307.967C76.8954 307.824 76.5639 307.753 76.196 307.753C75.8049 307.753 75.4635 307.834 75.1719 307.996C74.8835 308.156 74.6598 308.379 74.5007 308.668C74.3449 308.956 74.267 309.294 74.267 309.682H73.0938C73.0938 309.085 73.2313 308.562 73.5064 308.111C73.7815 307.66 74.156 307.309 74.63 307.057C75.1072 306.805 75.6425 306.679 76.2358 306.679C76.8324 306.679 77.361 306.805 77.8217 307.057C78.2824 307.309 78.6437 307.648 78.9055 308.076C79.1674 308.504 79.2983 308.979 79.2983 309.503C79.2983 309.877 79.2304 310.244 79.0945 310.602C78.9619 310.956 78.7299 311.352 78.3984 311.79C78.0703 312.224 77.6146 312.754 77.0312 313.381L74.7443 315.827V315.906H79.4773V317H73.054ZM84.8516 317.139C84.1025 317.139 83.4645 316.935 82.9375 316.528C82.4105 316.117 82.0078 315.522 81.7294 314.743C81.451 313.961 81.3118 313.016 81.3118 311.909C81.3118 310.809 81.451 309.869 81.7294 309.09C82.0111 308.308 82.4155 307.711 82.9425 307.3C83.4728 306.886 84.1091 306.679 84.8516 306.679C85.594 306.679 86.2287 306.886 86.7557 307.3C87.286 307.711 87.6903 308.308 87.9688 309.09C88.2505 309.869 88.3913 310.809 88.3913 311.909C88.3913 313.016 88.2521 313.961 87.9737 314.743C87.6953 315.522 87.2926 316.117 86.7656 316.528C86.2386 316.935 85.6006 317.139 84.8516 317.139ZM84.8516 316.045C85.594 316.045 86.1707 315.687 86.5817 314.972C86.9927 314.256 87.1982 313.235 87.1982 311.909C87.1982 311.027 87.1037 310.277 86.9148 309.657C86.7292 309.037 86.4607 308.565 86.1094 308.24C85.7614 307.915 85.3421 307.753 84.8516 307.753C84.1158 307.753 83.5407 308.116 83.1264 308.842C82.7121 309.564 82.505 310.587 82.505 311.909C82.505 312.791 82.5978 313.54 82.7834 314.156C82.969 314.773 83.2358 315.242 83.5838 315.563C83.9351 315.885 84.3577 316.045 84.8516 316.045ZM93.6016 317.139C92.8525 317.139 92.2145 316.935 91.6875 316.528C91.1605 316.117 90.7578 315.522 90.4794 314.743C90.201 313.961 90.0618 313.016 90.0618 311.909C90.0618 310.809 90.201 309.869 90.4794 309.09C90.7611 308.308 91.1655 307.711 91.6925 307.3C92.2228 306.886 92.8591 306.679 93.6016 306.679C94.344 306.679 94.9787 306.886 95.5057 307.3C96.036 307.711 96.4403 308.308 96.7188 309.09C97.0005 309.869 97.1413 310.809 97.1413 311.909C97.1413 313.016 97.0021 313.961 96.7237 314.743C96.4453 315.522 96.0426 316.117 95.5156 316.528C94.9886 316.935 94.3506 317.139 93.6016 317.139ZM93.6016 316.045C94.344 316.045 94.9207 315.687 95.3317 314.972C95.7427 314.256 95.9482 313.235 95.9482 311.909C95.9482 311.027 95.8537 310.277 95.6648 309.657C95.4792 309.037 95.2107 308.565 94.8594 308.24C94.5114 307.915 94.0921 307.753 93.6016 307.753C92.8658 307.753 92.2907 308.116 91.8764 308.842C91.4621 309.564 91.255 310.587 91.255 311.909C91.255 312.791 91.3478 313.54 91.5334 314.156C91.719 314.773 91.9858 315.242 92.3338 315.563C92.6851 315.885 93.1077 316.045 93.6016 316.045ZM102.471 317.139C101.815 317.139 101.23 317.027 100.716 316.801C100.205 316.576 99.7995 316.263 99.4979 315.862C99.1996 315.457 99.0372 314.988 99.0107 314.455H100.263C100.29 314.783 100.403 315.066 100.602 315.305C100.8 315.54 101.061 315.722 101.382 315.852C101.704 315.981 102.06 316.045 102.451 316.045C102.888 316.045 103.276 315.969 103.614 315.817C103.952 315.664 104.218 315.452 104.41 315.18C104.602 314.909 104.698 314.594 104.698 314.236C104.698 313.861 104.605 313.531 104.42 313.246C104.234 312.958 103.962 312.733 103.604 312.57C103.246 312.408 102.809 312.327 102.292 312.327H101.477V311.233H102.292C102.696 311.233 103.051 311.16 103.356 311.014C103.664 310.868 103.904 310.663 104.077 310.398C104.252 310.133 104.34 309.821 104.34 309.463C104.34 309.118 104.264 308.818 104.112 308.563C103.959 308.308 103.744 308.109 103.465 307.967C103.19 307.824 102.865 307.753 102.491 307.753C102.139 307.753 101.808 307.817 101.496 307.947C101.188 308.073 100.936 308.257 100.741 308.499C100.545 308.737 100.439 309.026 100.423 309.364H99.2294C99.2493 308.83 99.41 308.363 99.7116 307.962C100.013 307.557 100.408 307.242 100.895 307.017C101.385 306.792 101.924 306.679 102.511 306.679C103.14 306.679 103.681 306.807 104.131 307.062C104.582 307.314 104.929 307.647 105.17 308.061C105.412 308.475 105.533 308.923 105.533 309.403C105.533 309.977 105.383 310.466 105.081 310.87C104.783 311.274 104.377 311.554 103.863 311.71V311.79C104.506 311.896 105.008 312.169 105.369 312.61C105.731 313.048 105.911 313.589 105.911 314.236C105.911 314.789 105.76 315.286 105.459 315.727C105.161 316.165 104.753 316.509 104.236 316.761C103.719 317.013 103.13 317.139 102.471 317.139Z" fill="black"/>
<path d="M269.233 317V306.818H272.793C273.502 306.818 274.087 306.941 274.548 307.186C275.008 307.428 275.351 307.754 275.577 308.165C275.802 308.573 275.915 309.026 275.915 309.523C275.915 309.96 275.837 310.321 275.681 310.607C275.529 310.892 275.326 311.117 275.075 311.283C274.826 311.448 274.556 311.571 274.264 311.651V311.75C274.576 311.77 274.889 311.879 275.204 312.078C275.519 312.277 275.782 312.562 275.994 312.933C276.206 313.304 276.312 313.759 276.312 314.295C276.312 314.806 276.196 315.265 275.964 315.673C275.732 316.08 275.366 316.403 274.866 316.642C274.365 316.881 273.714 317 272.912 317H269.233ZM270.466 315.906H272.912C273.717 315.906 274.289 315.75 274.627 315.439C274.969 315.124 275.139 314.743 275.139 314.295C275.139 313.951 275.051 313.633 274.876 313.341C274.7 313.046 274.45 312.811 274.125 312.635C273.8 312.456 273.416 312.366 272.972 312.366H270.466V315.906ZM270.466 311.293H272.753C273.124 311.293 273.459 311.22 273.757 311.074C274.059 310.928 274.297 310.723 274.473 310.457C274.652 310.192 274.741 309.881 274.741 309.523C274.741 309.075 274.586 308.696 274.274 308.384C273.963 308.069 273.469 307.912 272.793 307.912H270.466V311.293ZM279.353 306.818V317H278.179V306.818H279.353ZM286.314 313.878V309.364H287.487V317H286.314V315.707H286.235C286.056 316.095 285.777 316.425 285.399 316.697C285.021 316.965 284.544 317.099 283.968 317.099C283.49 317.099 283.066 316.995 282.695 316.786C282.324 316.574 282.032 316.256 281.82 315.832C281.608 315.404 281.502 314.866 281.502 314.216V309.364H282.675V314.136C282.675 314.693 282.831 315.137 283.142 315.469C283.457 315.8 283.858 315.966 284.345 315.966C284.637 315.966 284.934 315.891 285.235 315.742C285.54 315.593 285.795 315.364 286.001 315.056C286.21 314.748 286.314 314.355 286.314 313.878ZM292.838 317.159C292.102 317.159 291.468 316.997 290.934 316.672C290.404 316.344 289.994 315.886 289.706 315.3C289.421 314.71 289.278 314.024 289.278 313.241C289.278 312.459 289.421 311.77 289.706 311.173C289.994 310.573 290.395 310.106 290.909 309.771C291.426 309.433 292.029 309.264 292.719 309.264C293.116 309.264 293.509 309.33 293.897 309.463C294.285 309.596 294.638 309.811 294.956 310.109C295.274 310.404 295.528 310.795 295.717 311.283C295.906 311.77 296 312.37 296 313.082V313.58H290.114V312.565H294.807C294.807 312.134 294.721 311.75 294.548 311.412C294.379 311.074 294.137 310.807 293.822 310.612C293.511 310.416 293.143 310.318 292.719 310.318C292.251 310.318 291.847 310.434 291.506 310.666C291.168 310.895 290.907 311.193 290.725 311.561C290.543 311.929 290.452 312.323 290.452 312.744V313.42C290.452 313.997 290.551 314.486 290.75 314.887C290.952 315.285 291.232 315.588 291.59 315.797C291.948 316.002 292.364 316.105 292.838 316.105C293.146 316.105 293.425 316.062 293.673 315.976C293.925 315.886 294.142 315.754 294.325 315.578C294.507 315.399 294.648 315.177 294.747 314.912L295.881 315.23C295.761 315.615 295.561 315.953 295.279 316.244C294.997 316.533 294.649 316.758 294.235 316.92C293.821 317.08 293.355 317.159 292.838 317.159Z" fill="black"/>
</svg>
