<svg width="170" height="68" viewBox="0 0 170 68" fill="none" xmlns="http://www.w3.org/2000/svg">
<rect width="170" height="68" fill="white"/>
<path d="M16.233 22V11.8182H19.7926C20.5019 11.8182 21.0869 11.9408 21.5476 12.1861C22.0083 12.428 22.3513 12.7545 22.5767 13.1655C22.8021 13.5732 22.9148 14.0256 22.9148 14.5227C22.9148 14.9602 22.8369 15.3215 22.6811 15.6065C22.5286 15.8916 22.3265 16.117 22.0746 16.2827C21.826 16.4484 21.5559 16.571 21.2642 16.6506V16.75C21.5758 16.7699 21.889 16.8793 22.2038 17.0781C22.5187 17.277 22.7822 17.562 22.9943 17.9332C23.2064 18.3045 23.3125 18.7585 23.3125 19.2955C23.3125 19.8059 23.1965 20.2649 22.9645 20.6726C22.7325 21.0803 22.3662 21.4034 21.8658 21.642C21.3653 21.8807 20.714 22 19.9119 22H16.233ZM17.4659 20.9062H19.9119C20.7173 20.9062 21.2891 20.7505 21.6271 20.4389C21.9685 20.1241 22.1392 19.7429 22.1392 19.2955C22.1392 18.9508 22.0514 18.6326 21.8757 18.3409C21.7 18.0459 21.4498 17.8106 21.125 17.6349C20.8002 17.456 20.4157 17.3665 19.9716 17.3665H17.4659V20.9062ZM17.4659 16.2926H19.7528C20.1241 16.2926 20.4588 16.2197 20.7571 16.0739C21.0587 15.928 21.2973 15.7225 21.473 15.4574C21.652 15.1922 21.7415 14.8807 21.7415 14.5227C21.7415 14.0753 21.5857 13.6958 21.2741 13.3842C20.9626 13.0694 20.4688 12.9119 19.7926 12.9119H17.4659V16.2926ZM25.1793 22V14.3636H26.3129V15.517H26.3924C26.5316 15.1392 26.7835 14.8326 27.1481 14.5973C27.5127 14.362 27.9237 14.2443 28.381 14.2443C28.4672 14.2443 28.5749 14.246 28.7042 14.2493C28.8335 14.2526 28.9312 14.2576 28.9975 14.2642V15.4574C28.9577 15.4474 28.8666 15.4325 28.7241 15.4126C28.5849 15.3894 28.4374 15.3778 28.2816 15.3778C27.9104 15.3778 27.579 15.4557 27.2873 15.6115C26.9989 15.764 26.7702 15.9761 26.6012 16.2479C26.4355 16.5163 26.3526 16.8229 26.3526 17.1676V22H25.1793ZM32.6355 22.179C32.1516 22.179 31.7124 22.0878 31.318 21.9055C30.9236 21.7199 30.6104 21.4531 30.3784 21.1051C30.1464 20.7538 30.0304 20.3295 30.0304 19.8324C30.0304 19.3949 30.1165 19.0402 30.2889 18.7685C30.4612 18.4934 30.6916 18.2779 30.9799 18.1222C31.2683 17.9664 31.5865 17.8504 31.9345 17.7741C32.2858 17.6946 32.6388 17.6316 32.9934 17.5852C33.4574 17.5256 33.8336 17.4808 34.122 17.451C34.4136 17.4179 34.6258 17.3632 34.7583 17.2869C34.8942 17.2107 34.9622 17.0781 34.9622 16.8892V16.8494C34.9622 16.3589 34.8279 15.9777 34.5595 15.706C34.2943 15.4342 33.8916 15.2983 33.3514 15.2983C32.7913 15.2983 32.3521 15.4209 32.0339 15.6662C31.7157 15.9115 31.492 16.1733 31.3627 16.4517L30.2491 16.054C30.448 15.59 30.7131 15.2287 31.0446 14.9702C31.3793 14.7083 31.7439 14.526 32.1383 14.4233C32.536 14.3172 32.9271 14.2642 33.3116 14.2642C33.5569 14.2642 33.8386 14.294 34.1568 14.3537C34.4783 14.41 34.7882 14.5277 35.0865 14.7067C35.3881 14.8857 35.6383 15.1558 35.8372 15.517C36.036 15.8783 36.1355 16.3622 36.1355 16.9688V22H34.9622V20.9659H34.9025C34.823 21.1316 34.6904 21.3089 34.5048 21.4979C34.3192 21.6868 34.0723 21.8475 33.764 21.9801C33.4558 22.1127 33.0796 22.179 32.6355 22.179ZM32.8145 21.125C33.2785 21.125 33.6696 21.0339 33.9877 20.8516C34.3092 20.6693 34.5512 20.4339 34.7136 20.1456C34.8793 19.8572 34.9622 19.554 34.9622 19.2358V18.1619C34.9125 18.2216 34.8031 18.2763 34.6341 18.326C34.4683 18.3724 34.2761 18.4138 34.0574 18.4503C33.8419 18.4834 33.6315 18.5133 33.426 18.5398C33.2238 18.563 33.0597 18.5829 32.9338 18.5994C32.6288 18.6392 32.3438 18.7038 32.0787 18.7933C31.8168 18.8795 31.6047 19.0104 31.4423 19.1861C31.2832 19.3584 31.2037 19.5937 31.2037 19.892C31.2037 20.2997 31.3545 20.608 31.6561 20.8168C31.961 21.0223 32.3471 21.125 32.8145 21.125ZM39.4503 17.4062V22H38.277V14.3636H39.4105V15.5568H39.5099C39.6889 15.169 39.9607 14.8575 40.3253 14.6222C40.6899 14.3835 41.1605 14.2642 41.7372 14.2642C42.2543 14.2642 42.7067 14.3703 43.0945 14.5824C43.4822 14.7912 43.7839 15.1094 43.9993 15.5369C44.2147 15.9612 44.3224 16.4981 44.3224 17.1477V22H43.1491V17.2273C43.1491 16.6274 42.9934 16.16 42.6818 15.8253C42.3703 15.4872 41.9427 15.3182 41.3991 15.3182C41.0246 15.3182 40.6899 15.3994 40.3949 15.5618C40.1032 15.7242 39.8729 15.9612 39.7038 16.2727C39.5348 16.5843 39.4503 16.9621 39.4503 17.4062ZM49.35 22.1591C48.7136 22.1591 48.1518 21.9983 47.6646 21.6768C47.1774 21.352 46.7962 20.8946 46.5211 20.3047C46.246 19.7114 46.1085 19.0104 46.1085 18.2017C46.1085 17.3996 46.246 16.7036 46.5211 16.1136C46.7962 15.5237 47.179 15.0679 47.6696 14.7464C48.1601 14.425 48.7269 14.2642 49.3699 14.2642C49.867 14.2642 50.2598 14.3471 50.5481 14.5128C50.8398 14.6752 51.0618 14.8608 51.2143 15.0696C51.3701 15.2751 51.4911 15.4441 51.5772 15.5767H51.6767V11.8182H52.85V22H51.7164V20.8267H51.5772C51.4911 20.9659 51.3684 21.1416 51.2093 21.3537C51.0502 21.5625 50.8232 21.7498 50.5282 21.9155C50.2333 22.0779 49.8405 22.1591 49.35 22.1591ZM49.5091 21.1051C49.9797 21.1051 50.3774 20.9825 50.7022 20.7372C51.027 20.4886 51.274 20.1456 51.443 19.7081C51.612 19.2673 51.6966 18.7585 51.6966 18.1818C51.6966 17.6117 51.6137 17.1129 51.448 16.6854C51.2823 16.2545 51.037 15.9197 50.7122 15.6811C50.3874 15.4392 49.9863 15.3182 49.5091 15.3182C49.0119 15.3182 48.5976 15.4458 48.2662 15.701C47.938 15.9529 47.6911 16.2959 47.5254 16.7301C47.363 17.161 47.2818 17.6449 47.2818 18.1818C47.2818 18.7254 47.3646 19.2192 47.5304 19.6634C47.6994 20.1042 47.948 20.4555 48.2761 20.7173C48.6075 20.9759 49.0185 21.1051 49.5091 21.1051ZM56.0169 22.0795C55.7716 22.0795 55.5611 21.9917 55.3855 21.8161C55.2098 21.6404 55.122 21.4299 55.122 21.1847C55.122 20.9394 55.2098 20.7289 55.3855 20.5533C55.5611 20.3776 55.7716 20.2898 56.0169 20.2898C56.2621 20.2898 56.4726 20.3776 56.6483 20.5533C56.8239 20.7289 56.9118 20.9394 56.9118 21.1847C56.9118 21.3471 56.8703 21.4962 56.7875 21.6321C56.7079 21.768 56.6002 21.8774 56.4643 21.9602C56.3317 22.0398 56.1826 22.0795 56.0169 22.0795ZM56.0169 16.4119C55.7716 16.4119 55.5611 16.3241 55.3855 16.1484C55.2098 15.9728 55.122 15.7623 55.122 15.517C55.122 15.2718 55.2098 15.0613 55.3855 14.8857C55.5611 14.71 55.7716 14.6222 56.0169 14.6222C56.2621 14.6222 56.4726 14.71 56.6483 14.8857C56.8239 15.0613 56.9118 15.2718 56.9118 15.517C56.9118 15.6795 56.8703 15.8286 56.7875 15.9645C56.7079 16.1004 56.6002 16.2098 56.4643 16.2926C56.3317 16.3722 56.1826 16.4119 56.0169 16.4119Z" fill="black"/>
</svg>
