<svg width="51" height="51" viewBox="0 0 51 51" fill="none" xmlns="http://www.w3.org/2000/svg">
<path d="M25.0738 46.2947C36.5593 46.5104 46.079 37.3417 46.2947 25.8562C46.5104 14.3707 37.3417 4.85105 25.8562 4.63536C14.3707 4.41967 4.85104 13.5884 4.63535 25.0739C4.41966 36.5593 13.5884 46.079 25.0738 46.2947ZM25.7779 8.80129C34.9659 8.97384 42.3013 16.59 42.1287 25.778C41.9562 34.9659 34.34 42.3013 25.1521 42.1288C15.9641 41.9562 8.62874 34.3401 8.80128 25.1521C8.97383 15.9641 16.59 8.62875 25.7779 8.80129Z" fill="black"/>
<path d="M33.9534 17.2896L23.3821 25.4259L33.6404 33.9533L33.9534 17.2896ZM23.3821 25.4259L23.5385 17.094L19.3726 17.0158L19.0597 33.6795L23.2256 33.7577L23.3821 25.4259Z" fill="black"/>
</svg>
