<svg width="170" height="68" viewBox="0 0 170 68" fill="none" xmlns="http://www.w3.org/2000/svg">
<rect width="170" height="68" fill="white"/>
<path d="M27.4261 14H26.1932C26.1203 13.6454 25.9927 13.3338 25.8104 13.0653C25.6314 12.7969 25.4126 12.5715 25.1541 12.3892C24.8989 12.2036 24.6155 12.0644 24.304 11.9716C23.9924 11.8788 23.6676 11.8324 23.3295 11.8324C22.7131 11.8324 22.1546 11.9882 21.6541 12.2997C21.157 12.6113 20.7609 13.0703 20.4659 13.6768C20.1742 14.2834 20.0284 15.0275 20.0284 15.9091C20.0284 16.7907 20.1742 17.5348 20.4659 18.1413C20.7609 18.7479 21.157 19.2069 21.6541 19.5185C22.1546 19.83 22.7131 19.9858 23.3295 19.9858C23.6676 19.9858 23.9924 19.9394 24.304 19.8466C24.6155 19.7538 24.8989 19.6162 25.1541 19.4339C25.4126 19.2483 25.6314 19.0213 25.8104 18.7528C25.9927 18.4811 26.1203 18.1695 26.1932 17.8182H27.4261C27.3333 18.3385 27.1643 18.8042 26.919 19.2152C26.6738 19.6262 26.3688 19.9759 26.0043 20.2642C25.6397 20.5492 25.2304 20.7663 24.7763 20.9155C24.3255 21.0646 23.8433 21.1392 23.3295 21.1392C22.4612 21.1392 21.6889 20.9271 21.0128 20.5028C20.3366 20.0786 19.8047 19.4754 19.4169 18.6932C19.0291 17.911 18.8352 16.983 18.8352 15.9091C18.8352 14.8352 19.0291 13.9072 19.4169 13.125C19.8047 12.3428 20.3366 11.7396 21.0128 11.3153C21.6889 10.8911 22.4612 10.679 23.3295 10.679C23.8433 10.679 24.3255 10.7536 24.7763 10.9027C25.2304 11.0518 25.6397 11.2706 26.0043 11.5589C26.3688 11.844 26.6738 12.192 26.919 12.603C27.1643 13.0107 27.3333 13.4763 27.4261 14ZM32.3617 21.1591C31.6723 21.1591 31.0674 20.995 30.5471 20.6669C30.03 20.3388 29.6257 19.8797 29.334 19.2898C29.0456 18.6998 28.9015 18.0104 28.9015 17.2216C28.9015 16.4261 29.0456 15.7318 29.334 15.1385C29.6257 14.5452 30.03 14.0845 30.5471 13.7564C31.0674 13.4283 31.6723 13.2642 32.3617 13.2642C33.0511 13.2642 33.6543 13.4283 34.1713 13.7564C34.6917 14.0845 35.0961 14.5452 35.3844 15.1385C35.6761 15.7318 35.8219 16.4261 35.8219 17.2216C35.8219 18.0104 35.6761 18.6998 35.3844 19.2898C35.0961 19.8797 34.6917 20.3388 34.1713 20.6669C33.6543 20.995 33.0511 21.1591 32.3617 21.1591ZM32.3617 20.1051C32.8854 20.1051 33.3162 19.9709 33.6543 19.7024C33.9924 19.4339 34.2426 19.081 34.405 18.6435C34.5674 18.206 34.6486 17.732 34.6486 17.2216C34.6486 16.7112 34.5674 16.2356 34.405 15.7947C34.2426 15.3539 33.9924 14.9976 33.6543 14.7259C33.3162 14.4541 32.8854 14.3182 32.3617 14.3182C31.838 14.3182 31.4071 14.4541 31.0691 14.7259C30.731 14.9976 30.4808 15.3539 30.3184 15.7947C30.156 16.2356 30.0748 16.7112 30.0748 17.2216C30.0748 17.732 30.156 18.206 30.3184 18.6435C30.4808 19.081 30.731 19.4339 31.0691 19.7024C31.4071 19.9709 31.838 20.1051 32.3617 20.1051ZM38.7862 10.8182V21H37.6129V10.8182H38.7862ZM44.0375 21.1591C43.3481 21.1591 42.7432 20.995 42.2228 20.6669C41.7058 20.3388 41.3014 19.8797 41.0098 19.2898C40.7214 18.6998 40.5772 18.0104 40.5772 17.2216C40.5772 16.4261 40.7214 15.7318 41.0098 15.1385C41.3014 14.5452 41.7058 14.0845 42.2228 13.7564C42.7432 13.4283 43.3481 13.2642 44.0375 13.2642C44.7269 13.2642 45.3301 13.4283 45.8471 13.7564C46.3675 14.0845 46.7718 14.5452 47.0602 15.1385C47.3519 15.7318 47.4977 16.4261 47.4977 17.2216C47.4977 18.0104 47.3519 18.6998 47.0602 19.2898C46.7718 19.8797 46.3675 20.3388 45.8471 20.6669C45.3301 20.995 44.7269 21.1591 44.0375 21.1591ZM44.0375 20.1051C44.5611 20.1051 44.992 19.9709 45.3301 19.7024C45.6681 19.4339 45.9184 19.081 46.0808 18.6435C46.2432 18.206 46.3244 17.732 46.3244 17.2216C46.3244 16.7112 46.2432 16.2356 46.0808 15.7947C45.9184 15.3539 45.6681 14.9976 45.3301 14.7259C44.992 14.4541 44.5611 14.3182 44.0375 14.3182C43.5138 14.3182 43.0829 14.4541 42.7449 14.7259C42.4068 14.9976 42.1565 15.3539 41.9941 15.7947C41.8317 16.2356 41.7505 16.7112 41.7505 17.2216C41.7505 17.732 41.8317 18.206 41.9941 18.6435C42.1565 19.081 42.4068 19.4339 42.7449 19.7024C43.0829 19.9709 43.5138 20.1051 44.0375 20.1051ZM49.2887 21V13.3636H50.4222V14.517H50.5018C50.641 14.1392 50.8929 13.8326 51.2575 13.5973C51.622 13.362 52.033 13.2443 52.4904 13.2443C52.5766 13.2443 52.6843 13.246 52.8136 13.2493C52.9428 13.2526 53.0406 13.2576 53.1069 13.2642V14.4574C53.0671 14.4474 52.976 14.4325 52.8335 14.4126C52.6942 14.3894 52.5468 14.3778 52.391 14.3778C52.0198 14.3778 51.6883 14.4557 51.3967 14.6115C51.1083 14.764 50.8796 14.9761 50.7106 15.2479C50.5449 15.5163 50.462 15.8229 50.462 16.1676V21H49.2887ZM55.3528 21.0795C55.1075 21.0795 54.8971 20.9917 54.7214 20.8161C54.5458 20.6404 54.4579 20.4299 54.4579 20.1847C54.4579 19.9394 54.5458 19.7289 54.7214 19.5533C54.8971 19.3776 55.1075 19.2898 55.3528 19.2898C55.5981 19.2898 55.8085 19.3776 55.9842 19.5533C56.1599 19.7289 56.2477 19.9394 56.2477 20.1847C56.2477 20.3471 56.2063 20.4962 56.1234 20.6321C56.0439 20.768 55.9361 20.8774 55.8002 20.9602C55.6677 21.0398 55.5185 21.0795 55.3528 21.0795ZM55.3528 15.4119C55.1075 15.4119 54.8971 15.3241 54.7214 15.1484C54.5458 14.9728 54.4579 14.7623 54.4579 14.517C54.4579 14.2718 54.5458 14.0613 54.7214 13.8857C54.8971 13.71 55.1075 13.6222 55.3528 13.6222C55.5981 13.6222 55.8085 13.71 55.9842 13.8857C56.1599 14.0613 56.2477 14.2718 56.2477 14.517C56.2477 14.6795 56.2063 14.8286 56.1234 14.9645C56.0439 15.1004 55.9361 15.2098 55.8002 15.2926C55.6677 15.3722 55.5185 15.4119 55.3528 15.4119Z" fill="black"/>
</svg>
