<svg width="58" height="56" viewBox="0 0 58 56" fill="none" xmlns="http://www.w3.org/2000/svg">
<path d="M21.752 0.970667C22.1059 1.38583 22.3227 1.89391 22.3744 2.42926C22.4261 2.96461 22.3104 3.50262 22.0421 3.97379C19.9461 7.68911 18.8515 11.8537 18.859 16.0843C18.859 30.1584 30.7429 41.5549 45.3893 41.5549C47.2998 41.5549 49.1596 41.3624 50.9469 40.9948C51.4948 40.8803 52.0655 40.9241 52.5877 41.1208C53.11 41.3175 53.5606 41.6584 53.8834 42.1009C54.2242 42.561 54.3979 43.1169 54.3776 43.6821C54.3572 44.2474 54.144 44.7903 53.771 45.2265C50.9276 48.5987 47.3406 51.3157 43.2715 53.1795C39.2023 55.0433 34.7537 56.0069 30.2498 56C13.537 56 0 43.0004 0 26.9838C0 14.9293 7.66397 4.58982 18.5762 0.207635C19.1198 -0.0141623 19.7233 -0.0596853 20.2959 0.0779048C20.8686 0.215495 21.3795 0.528769 21.752 0.970667V0.970667Z" fill="black"/>
<path d="M39.1319 11.0159C39.1839 10.8643 39.284 10.7324 39.4181 10.6389C39.5521 10.5454 39.7133 10.4951 39.8787 10.4951C40.0441 10.4951 40.2053 10.5454 40.3393 10.6389C40.4734 10.7324 40.5735 10.8643 40.6255 11.0159L42.0285 15.0831C42.6557 16.8962 44.1276 18.3172 46.0055 18.9227L50.2182 20.2773C50.3752 20.3275 50.5118 20.4242 50.6086 20.5536C50.7054 20.683 50.7576 20.8387 50.7576 20.9983C50.7576 21.158 50.7054 21.3136 50.6086 21.443C50.5118 21.5725 50.3752 21.6692 50.2182 21.7194L46.0055 23.0739C45.0793 23.3718 44.2377 23.8739 43.5474 24.5404C42.8571 25.2068 42.3371 26.0194 42.0285 26.9136L40.6255 30.9807C40.5735 31.1323 40.4734 31.2642 40.3393 31.3577C40.2053 31.4512 40.0441 31.5015 39.8787 31.5015C39.7133 31.5015 39.5521 31.4512 39.4181 31.3577C39.284 31.2642 39.1839 31.1323 39.1319 30.9807L37.7289 26.9136C37.4203 26.0194 36.9002 25.2068 36.2099 24.5404C35.5196 23.8739 34.6781 23.3718 33.7519 23.0739L29.5392 21.7194C29.3822 21.6692 29.2456 21.5725 29.1488 21.443C29.0519 21.3136 28.9998 21.158 28.9998 20.9983C28.9998 20.8387 29.0519 20.683 29.1488 20.5536C29.2456 20.4242 29.3822 20.3275 29.5392 20.2773L33.7519 18.9227C34.6781 18.6248 35.5196 18.1227 36.2099 17.4563C36.9002 16.7898 37.4203 15.9773 37.7289 15.0831L39.1319 11.0159V11.0159ZM50.258 0.343959C50.2938 0.244297 50.3609 0.157877 50.4499 0.0967143C50.5389 0.0355516 50.6455 0.00268555 50.7547 0.00268555C50.864 0.00268555 50.9705 0.0355516 51.0595 0.0967143C51.1485 0.157877 51.2156 0.244297 51.2514 0.343959L52.1867 3.05307C52.6036 4.26412 53.5861 5.21266 54.8405 5.61518L57.6465 6.51822C57.7497 6.55277 57.8392 6.61752 57.9026 6.70345C57.9659 6.78939 58 6.89225 58 6.99774C58 7.10322 57.9659 7.20608 57.9026 7.29202C57.8392 7.37796 57.7497 7.44271 57.6465 7.47726L54.8405 8.38029C54.2223 8.57883 53.6606 8.91377 53.1999 9.35852C52.7393 9.80328 52.3924 10.3456 52.1867 10.9424L51.2514 13.6515C51.2156 13.7512 51.1485 13.8376 51.0595 13.8988C50.9705 13.9599 50.864 13.9928 50.7547 13.9928C50.6455 13.9928 50.5389 13.9599 50.4499 13.8988C50.3609 13.8376 50.2938 13.7512 50.258 13.6515L49.3227 10.9424C49.1171 10.3456 48.7701 9.80328 48.3095 9.35852C47.8488 8.91377 47.2871 8.57883 46.669 8.38029L43.8629 7.47726C43.7597 7.44271 43.6702 7.37796 43.6069 7.29202C43.5435 7.20608 43.5095 7.10322 43.5095 6.99774C43.5095 6.89225 43.5435 6.78939 43.6069 6.70345C43.6702 6.61752 43.7597 6.55277 43.8629 6.51822L46.669 5.61518C47.9233 5.21266 48.9058 4.26412 49.3227 3.05307L50.258 0.347459V0.343959Z" fill="black"/>
</svg>
