<svg width="170" height="68" viewBox="0 0 170 68" fill="none" xmlns="http://www.w3.org/2000/svg">
<rect width="170" height="68" fill="white"/>
<path d="M19.233 10.8182H20.7045L24.1648 19.2699H24.2841L27.7443 10.8182H29.2159V21H28.0625V13.2642H27.9631L24.7812 21H23.6676L20.4858 13.2642H20.3864V21H19.233V10.8182ZM34.6312 21.1591C33.9418 21.1591 33.3369 20.995 32.8166 20.6669C32.2995 20.3388 31.8952 19.8797 31.6035 19.2898C31.3152 18.6998 31.171 18.0104 31.171 17.2216C31.171 16.4261 31.3152 15.7318 31.6035 15.1385C31.8952 14.5452 32.2995 14.0845 32.8166 13.7564C33.3369 13.4283 33.9418 13.2642 34.6312 13.2642C35.3206 13.2642 35.9238 13.4283 36.4409 13.7564C36.9612 14.0845 37.3656 14.5452 37.6539 15.1385C37.9456 15.7318 38.0914 16.4261 38.0914 17.2216C38.0914 18.0104 37.9456 18.6998 37.6539 19.2898C37.3656 19.8797 36.9612 20.3388 36.4409 20.6669C35.9238 20.995 35.3206 21.1591 34.6312 21.1591ZM34.6312 20.1051C35.1549 20.1051 35.5858 19.9709 35.9238 19.7024C36.2619 19.4339 36.5121 19.081 36.6745 18.6435C36.8369 18.206 36.9181 17.732 36.9181 17.2216C36.9181 16.7112 36.8369 16.2356 36.6745 15.7947C36.5121 15.3539 36.2619 14.9976 35.9238 14.7259C35.5858 14.4541 35.1549 14.3182 34.6312 14.3182C34.1075 14.3182 33.6767 14.4541 33.3386 14.7259C33.0005 14.9976 32.7503 15.3539 32.5879 15.7947C32.4255 16.2356 32.3443 16.7112 32.3443 17.2216C32.3443 17.732 32.4255 18.206 32.5879 18.6435C32.7503 19.081 33.0005 19.4339 33.3386 19.7024C33.6767 19.9709 34.1075 20.1051 34.6312 20.1051ZM42.766 21.1591C42.1296 21.1591 41.5678 20.9983 41.0806 20.6768C40.5934 20.352 40.2122 19.8946 39.9371 19.3047C39.6621 18.7114 39.5245 18.0104 39.5245 17.2017C39.5245 16.3996 39.6621 15.7036 39.9371 15.1136C40.2122 14.5237 40.5951 14.0679 41.0856 13.7464C41.5761 13.425 42.1429 13.2642 42.7859 13.2642C43.283 13.2642 43.6758 13.3471 43.9641 13.5128C44.2558 13.6752 44.4779 13.8608 44.6303 14.0696C44.7861 14.2751 44.9071 14.4441 44.9933 14.5767H45.0927V10.8182H46.266V21H45.1325V19.8267H44.9933C44.9071 19.9659 44.7844 20.1416 44.6254 20.3537C44.4663 20.5625 44.2392 20.7498 43.9442 20.9155C43.6493 21.0779 43.2565 21.1591 42.766 21.1591ZM42.9251 20.1051C43.3957 20.1051 43.7934 19.9825 44.1183 19.7372C44.4431 19.4886 44.69 19.1456 44.859 18.7081C45.0281 18.2673 45.1126 17.7585 45.1126 17.1818C45.1126 16.6117 45.0297 16.1129 44.864 15.6854C44.6983 15.2545 44.453 14.9197 44.1282 14.6811C43.8034 14.4392 43.4023 14.3182 42.9251 14.3182C42.4279 14.3182 42.0136 14.4458 41.6822 14.701C41.354 14.9529 41.1071 15.2959 40.9414 15.7301C40.779 16.161 40.6978 16.6449 40.6978 17.1818C40.6978 17.7254 40.7807 18.2192 40.9464 18.6634C41.1154 19.1042 41.364 19.4555 41.6921 19.7173C42.0236 19.9759 42.4345 20.1051 42.9251 20.1051ZM51.7795 21.1591C51.0437 21.1591 50.409 20.9967 49.8754 20.6719C49.3451 20.3438 48.9357 19.8864 48.6474 19.2997C48.3623 18.7098 48.2198 18.0237 48.2198 17.2415C48.2198 16.4593 48.3623 15.7699 48.6474 15.1733C48.9357 14.5734 49.3368 14.1061 49.8505 13.7713C50.3675 13.4332 50.9708 13.2642 51.6602 13.2642C52.0579 13.2642 52.4506 13.3305 52.8384 13.4631C53.2262 13.5956 53.5792 13.8111 53.8974 14.1094C54.2156 14.4044 54.4691 14.7955 54.658 15.2827C54.8469 15.7699 54.9414 16.3698 54.9414 17.0824V17.5795H49.055V16.5653H53.7482C53.7482 16.1345 53.6621 15.75 53.4897 15.4119C53.3207 15.0739 53.0787 14.8071 52.7638 14.6115C52.4523 14.416 52.0844 14.3182 51.6602 14.3182C51.1928 14.3182 50.7885 14.4342 50.4471 14.6662C50.109 14.8949 49.8488 15.1932 49.6665 15.5611C49.4843 15.929 49.3931 16.3234 49.3931 16.7443V17.4205C49.3931 17.9972 49.4925 18.486 49.6914 18.8871C49.8936 19.2848 50.1737 19.5881 50.5316 19.7969C50.8896 20.0024 51.3055 20.1051 51.7795 20.1051C52.0877 20.1051 52.3661 20.062 52.6147 19.9759C52.8666 19.8864 53.0837 19.7538 53.266 19.5781C53.4483 19.3991 53.5891 19.1771 53.6886 18.9119L54.8221 19.2301C54.7028 19.6146 54.5022 19.9527 54.2205 20.2443C53.9388 20.5327 53.5908 20.758 53.1765 20.9205C52.7622 21.0795 52.2965 21.1591 51.7795 21.1591ZM57.8995 10.8182V21H56.7262V10.8182H57.8995ZM60.9036 21.0795C60.6583 21.0795 60.4479 20.9917 60.2722 20.8161C60.0965 20.6404 60.0087 20.4299 60.0087 20.1847C60.0087 19.9394 60.0965 19.7289 60.2722 19.5533C60.4479 19.3776 60.6583 19.2898 60.9036 19.2898C61.1489 19.2898 61.3593 19.3776 61.535 19.5533C61.7106 19.7289 61.7985 19.9394 61.7985 20.1847C61.7985 20.3471 61.757 20.4962 61.6742 20.6321C61.5946 20.768 61.4869 20.8774 61.351 20.9602C61.2185 21.0398 61.0693 21.0795 60.9036 21.0795ZM60.9036 15.4119C60.6583 15.4119 60.4479 15.3241 60.2722 15.1484C60.0965 14.9728 60.0087 14.7623 60.0087 14.517C60.0087 14.2718 60.0965 14.0613 60.2722 13.8857C60.4479 13.71 60.6583 13.6222 60.9036 13.6222C61.1489 13.6222 61.3593 13.71 61.535 13.8857C61.7106 14.0613 61.7985 14.2718 61.7985 14.517C61.7985 14.6795 61.757 14.8286 61.6742 14.9645C61.5946 15.1004 61.4869 15.2098 61.351 15.2926C61.2185 15.3722 61.0693 15.4119 60.9036 15.4119Z" fill="black"/>
</svg>
