<svg width="170" height="68" viewBox="0 0 170 68" fill="none" xmlns="http://www.w3.org/2000/svg">
<rect width="170" height="68" fill="white"/>
<path d="M19.233 22V11.8182H22.6733C23.4688 11.8182 24.1217 11.9541 24.6321 12.2259C25.1425 12.4943 25.5204 12.8639 25.7656 13.3345C26.0109 13.8052 26.1335 14.3404 26.1335 14.9403C26.1335 15.5402 26.0109 16.0722 25.7656 16.5362C25.5204 17.0002 25.1442 17.3648 24.6371 17.63C24.13 17.8918 23.482 18.0227 22.6932 18.0227H19.9091V16.9091H22.6534C23.197 16.9091 23.6345 16.8295 23.9659 16.6705C24.3007 16.5114 24.5426 16.286 24.6918 15.9943C24.8442 15.6993 24.9205 15.348 24.9205 14.9403C24.9205 14.5327 24.8442 14.1764 24.6918 13.8714C24.5393 13.5665 24.2957 13.3312 23.9609 13.1655C23.6262 12.9964 23.1837 12.9119 22.6335 12.9119H20.4659V22H19.233ZM24.0256 17.4261L26.5312 22H25.0994L22.6335 17.4261H24.0256ZM31.1486 22.1591C30.4128 22.1591 29.7781 21.9967 29.2445 21.6719C28.7142 21.3438 28.3049 20.8864 28.0165 20.2997C27.7315 19.7098 27.589 19.0237 27.589 18.2415C27.589 17.4593 27.7315 16.7699 28.0165 16.1733C28.3049 15.5734 28.7059 15.1061 29.2196 14.7713C29.7367 14.4332 30.3399 14.2642 31.0293 14.2642C31.427 14.2642 31.8198 14.3305 32.2076 14.4631C32.5953 14.5956 32.9483 14.8111 33.2665 15.1094C33.5847 15.4044 33.8382 15.7955 34.0272 16.2827C34.2161 16.7699 34.3105 17.3698 34.3105 18.0824V18.5795H28.4242V17.5653H33.1174C33.1174 17.1345 33.0312 16.75 32.8588 16.4119C32.6898 16.0739 32.4479 15.8071 32.133 15.6115C31.8214 15.416 31.4535 15.3182 31.0293 15.3182C30.562 15.3182 30.1576 15.4342 29.8162 15.6662C29.4782 15.8949 29.218 16.1932 29.0357 16.5611C28.8534 16.929 28.7623 17.3234 28.7623 17.7443V18.4205C28.7623 18.9972 28.8617 19.486 29.0605 19.8871C29.2627 20.2848 29.5428 20.5881 29.9007 20.7969C30.2587 21.0024 30.6747 21.1051 31.1486 21.1051C31.4569 21.1051 31.7353 21.062 31.9838 20.9759C32.2357 20.8864 32.4528 20.7538 32.6351 20.5781C32.8174 20.3991 32.9583 20.1771 33.0577 19.9119L34.1912 20.2301C34.0719 20.6146 33.8714 20.9527 33.5897 21.2443C33.3079 21.5327 32.9599 21.758 32.5456 21.9205C32.1313 22.0795 31.6657 22.1591 31.1486 22.1591ZM39.4959 14.3636V15.358H35.3794V14.3636H39.4959ZM36.6124 22V13.3097C36.6124 12.8722 36.7151 12.5076 36.9206 12.2159C37.1261 11.9242 37.3929 11.7055 37.7211 11.5597C38.0492 11.4138 38.3955 11.3409 38.7601 11.3409C39.0485 11.3409 39.2838 11.3641 39.4661 11.4105C39.6484 11.4569 39.7843 11.5 39.8738 11.5398L39.5357 12.554C39.476 12.5341 39.3932 12.5092 39.2871 12.4794C39.1844 12.4496 39.0485 12.4347 38.8794 12.4347C38.4917 12.4347 38.2116 12.5324 38.0392 12.728C37.8702 12.9235 37.7857 13.2102 37.7857 13.5881V22H36.6124ZM44.0275 22.1591C43.2917 22.1591 42.657 21.9967 42.1234 21.6719C41.5931 21.3438 41.1838 20.8864 40.8954 20.2997C40.6104 19.7098 40.4679 19.0237 40.4679 18.2415C40.4679 17.4593 40.6104 16.7699 40.8954 16.1733C41.1838 15.5734 41.5848 15.1061 42.0985 14.7713C42.6156 14.4332 43.2188 14.2642 43.9082 14.2642C44.3059 14.2642 44.6987 14.3305 45.0865 14.4631C45.4743 14.5956 45.8272 14.8111 46.1454 15.1094C46.4636 15.4044 46.7172 15.7955 46.9061 16.2827C47.095 16.7699 47.1895 17.3698 47.1895 18.0824V18.5795H41.3031V17.5653H45.9963C45.9963 17.1345 45.9101 16.75 45.7377 16.4119C45.5687 16.0739 45.3268 15.8071 45.0119 15.6115C44.7003 15.416 44.3324 15.3182 43.9082 15.3182C43.4409 15.3182 43.0365 15.4342 42.6951 15.6662C42.3571 15.8949 42.0969 16.1932 41.9146 16.5611C41.7323 16.929 41.6412 17.3234 41.6412 17.7443V18.4205C41.6412 18.9972 41.7406 19.486 41.9395 19.8871C42.1416 20.2848 42.4217 20.5881 42.7797 20.7969C43.1376 21.0024 43.5536 21.1051 44.0275 21.1051C44.3358 21.1051 44.6142 21.062 44.8627 20.9759C45.1146 20.8864 45.3317 20.7538 45.514 20.5781C45.6963 20.3991 45.8372 20.1771 45.9366 19.9119L47.0701 20.2301C46.9508 20.6146 46.7503 20.9527 46.4686 21.2443C46.1868 21.5327 45.8388 21.758 45.4245 21.9205C45.0102 22.0795 44.5446 22.1591 44.0275 22.1591ZM48.9743 22V14.3636H50.1078V15.517H50.1873C50.3265 15.1392 50.5784 14.8326 50.943 14.5973C51.3076 14.362 51.7186 14.2443 52.176 14.2443C52.2621 14.2443 52.3699 14.246 52.4991 14.2493C52.6284 14.2526 52.7261 14.2576 52.7924 14.2642V15.4574C52.7527 15.4474 52.6615 15.4325 52.519 15.4126C52.3798 15.3894 52.2323 15.3778 52.0765 15.3778C51.7053 15.3778 51.3739 15.4557 51.0822 15.6115C50.7939 15.764 50.5652 15.9761 50.3961 16.2479C50.2304 16.5163 50.1475 16.8229 50.1475 17.1676V22H48.9743ZM57.1525 22.1591C56.4167 22.1591 55.782 21.9967 55.2484 21.6719C54.7181 21.3438 54.3088 20.8864 54.0204 20.2997C53.7354 19.7098 53.5929 19.0237 53.5929 18.2415C53.5929 17.4593 53.7354 16.7699 54.0204 16.1733C54.3088 15.5734 54.7098 15.1061 55.2235 14.7713C55.7406 14.4332 56.3438 14.2642 57.0332 14.2642C57.4309 14.2642 57.8237 14.3305 58.2115 14.4631C58.5993 14.5956 58.9522 14.8111 59.2704 15.1094C59.5886 15.4044 59.8422 15.7955 60.0311 16.2827C60.22 16.7699 60.3145 17.3698 60.3145 18.0824V18.5795H54.4281V17.5653H59.1213C59.1213 17.1345 59.0351 16.75 58.8627 16.4119C58.6937 16.0739 58.4518 15.8071 58.1369 15.6115C57.8253 15.416 57.4574 15.3182 57.0332 15.3182C56.5659 15.3182 56.1615 15.4342 55.8201 15.6662C55.4821 15.8949 55.2219 16.1932 55.0396 16.5611C54.8573 16.929 54.7662 17.3234 54.7662 17.7443V18.4205C54.7662 18.9972 54.8656 19.486 55.0645 19.8871C55.2666 20.2848 55.5467 20.5881 55.9047 20.7969C56.2626 21.0024 56.6786 21.1051 57.1525 21.1051C57.4608 21.1051 57.7392 21.062 57.9877 20.9759C58.2396 20.8864 58.4567 20.7538 58.639 20.5781C58.8213 20.3991 58.9622 20.1771 59.0616 19.9119L60.1951 20.2301C60.0758 20.6146 59.8753 20.9527 59.5936 21.2443C59.3118 21.5327 58.9638 21.758 58.5495 21.9205C58.1352 22.0795 57.6696 22.1591 57.1525 22.1591ZM63.2725 17.4062V22H62.0993V14.3636H63.2328V15.5568H63.3322C63.5112 15.169 63.783 14.8575 64.1475 14.6222C64.5121 14.3835 64.9828 14.2642 65.5595 14.2642C66.0765 14.2642 66.5289 14.3703 66.9167 14.5824C67.3045 14.7912 67.6061 15.1094 67.8216 15.5369C68.037 15.9612 68.1447 16.4981 68.1447 17.1477V22H66.9714V17.2273C66.9714 16.6274 66.8156 16.16 66.5041 15.8253C66.1925 15.4872 65.765 15.3182 65.2214 15.3182C64.8469 15.3182 64.5121 15.3994 64.2172 15.5618C63.9255 15.7242 63.6951 15.9612 63.5261 16.2727C63.3571 16.5843 63.2725 16.9621 63.2725 17.4062ZM73.391 22.1591C72.6751 22.1591 72.0586 21.9901 71.5415 21.652C71.0245 21.3139 70.6268 20.8482 70.3484 20.255C70.07 19.6617 69.9308 18.9839 69.9308 18.2216C69.9308 17.446 70.0733 16.7616 70.3583 16.1683C70.6467 15.5717 71.0477 15.1061 71.5614 14.7713C72.0785 14.4332 72.6817 14.2642 73.3711 14.2642C73.908 14.2642 74.3919 14.3636 74.8228 14.5625C75.2537 14.7614 75.6067 15.0398 75.8817 15.3977C76.1568 15.7557 76.3275 16.1733 76.3938 16.6506H75.2205C75.131 16.3026 74.9322 15.9943 74.6239 15.7259C74.319 15.4541 73.908 15.3182 73.391 15.3182C72.9336 15.3182 72.5326 15.4375 72.1879 15.6761C71.8465 15.9115 71.5797 16.2446 71.3874 16.6754C71.1985 17.103 71.104 17.6051 71.104 18.1818C71.104 18.7718 71.1969 19.2855 71.3825 19.723C71.5714 20.1605 71.8365 20.5002 72.1779 20.7422C72.5226 20.9841 72.927 21.1051 73.391 21.1051C73.6959 21.1051 73.9727 21.0521 74.2212 20.946C74.4698 20.84 74.6803 20.6875 74.8526 20.4886C75.025 20.2898 75.1476 20.0511 75.2205 19.7727H76.3938C76.3275 20.2235 76.1635 20.6295 75.9016 20.9908C75.6431 21.3487 75.3001 21.6338 74.8725 21.8459C74.4483 22.0547 73.9544 22.1591 73.391 22.1591ZM81.3107 22.1591C80.5749 22.1591 79.9402 21.9967 79.4066 21.6719C78.8763 21.3438 78.467 20.8864 78.1786 20.2997C77.8936 19.7098 77.7511 19.0237 77.7511 18.2415C77.7511 17.4593 77.8936 16.7699 78.1786 16.1733C78.467 15.5734 78.868 15.1061 79.3817 14.7713C79.8988 14.4332 80.502 14.2642 81.1914 14.2642C81.5891 14.2642 81.9819 14.3305 82.3697 14.4631C82.7575 14.5956 83.1104 14.8111 83.4286 15.1094C83.7468 15.4044 84.0004 15.7955 84.1893 16.2827C84.3782 16.7699 84.4727 17.3698 84.4727 18.0824V18.5795H78.5863V17.5653H83.2795C83.2795 17.1345 83.1933 16.75 83.021 16.4119C82.8519 16.0739 82.61 15.8071 82.2951 15.6115C81.9835 15.416 81.6156 15.3182 81.1914 15.3182C80.7241 15.3182 80.3197 15.4342 79.9783 15.6662C79.6403 15.8949 79.3801 16.1932 79.1978 16.5611C79.0155 16.929 78.9244 17.3234 78.9244 17.7443V18.4205C78.9244 18.9972 79.0238 19.486 79.2227 19.8871C79.4248 20.2848 79.7049 20.5881 80.0629 20.7969C80.4208 21.0024 80.8368 21.1051 81.3107 21.1051C81.619 21.1051 81.8974 21.062 82.146 20.9759C82.3978 20.8864 82.6149 20.7538 82.7972 20.5781C82.9795 20.3991 83.1204 20.1771 83.2198 19.9119L84.3533 20.2301C84.234 20.6146 84.0335 20.9527 83.7518 21.2443C83.4701 21.5327 83.122 21.758 82.7077 21.9205C82.2934 22.0795 81.8278 22.1591 81.3107 22.1591ZM87.1126 22.0795C86.8673 22.0795 86.6568 21.9917 86.4812 21.8161C86.3055 21.6404 86.2177 21.4299 86.2177 21.1847C86.2177 20.9394 86.3055 20.7289 86.4812 20.5533C86.6568 20.3776 86.8673 20.2898 87.1126 20.2898C87.3578 20.2898 87.5683 20.3776 87.744 20.5533C87.9196 20.7289 88.0075 20.9394 88.0075 21.1847C88.0075 21.3471 87.966 21.4962 87.8832 21.6321C87.8036 21.768 87.6959 21.8774 87.56 21.9602C87.4274 22.0398 87.2783 22.0795 87.1126 22.0795ZM87.1126 16.4119C86.8673 16.4119 86.6568 16.3241 86.4812 16.1484C86.3055 15.9728 86.2177 15.7623 86.2177 15.517C86.2177 15.2718 86.3055 15.0613 86.4812 14.8857C86.6568 14.71 86.8673 14.6222 87.1126 14.6222C87.3578 14.6222 87.5683 14.71 87.744 14.8857C87.9196 15.0613 88.0075 15.2718 88.0075 15.517C88.0075 15.6795 87.966 15.8286 87.8832 15.9645C87.8036 16.1004 87.6959 16.2098 87.56 16.2926C87.4274 16.3722 87.2783 16.4119 87.1126 16.4119Z" fill="black"/>
</svg>
